<svg xmlns="http://www.w3.org/2000/svg" viewBox="0 0 3011.85 5780.71"><defs><style>.cls-1{fill:#e0e0e0;}.cls-2{fill:#f5f5f5;}.cls-3{fill:#ebebeb;}.cls-4,.cls-8{fill:#e8505b;}.cls-5{fill:#263238;}.cls-6{fill:#455a64;}.cls-7{fill:#fafafa;}.cls-11,.cls-8{fill-rule:evenodd;}.cls-9{fill:none;}.cls-10{opacity:0.8;}.cls-11,.cls-12{fill:#fff;}.cls-13{fill:#7feeff;}.cls-14{opacity:0.3;}.cls-15{fill:#ff903f;}</style></defs><title>robobobo</title><g id="Слой_2" data-name="Слой 2"><g id="Background_Complete" data-name="Background Complete"><rect class="cls-1" x="1200.47" y="5336.6" width="32.06" height="4.39"/><rect class="cls-1" x="1200.47" y="5344.54" width="13.87" height="4.39"/><path class="cls-2" d="M1068.11,5385.53a20.25,20.25,0,0,1,5-2.16l1-4.92,8.31-.15,1.2,4.88a20.12,20.12,0,0,1,5,2l4.2-2.76,6,5.78-2.61,4.29a20.41,20.41,0,0,1,2.16,5l4.92,1,.15,8.31-4.88,1.2a20.12,20.12,0,0,1-2,5l2.76,4.2-5.78,6-4.29-2.6a20.48,20.48,0,0,1-5,2.16l-1,4.92-8.31.15-1.2-4.89a20.48,20.48,0,0,1-5-2l-4.2,2.75-6-5.77,2.6-4.3a20.25,20.25,0,0,1-2.16-5l-4.92-1-.15-8.31,4.88-1.2a20.51,20.51,0,0,1,2-5l-2.75-4.21,5.77-6,4.3,2.61Zm4.43,11.07a8.92,8.92,0,1,0,12.61-.22A8.91,8.91,0,0,0,1072.54,5396.6Z"/><path class="cls-2" d="M1072.54,5396.6a6.55,6.55,0,0,1,1.66-1.46,8.85,8.85,0,0,1,5.82-1.37,9,9,0,0,1,4,1.4,9.25,9.25,0,0,1,3.2,3.61,8.63,8.63,0,0,1,.81,2.5,8.73,8.73,0,0,1,0,2.75,9.23,9.23,0,0,1-2.48,5.14,9.12,9.12,0,0,1-5,2.65,8.42,8.42,0,0,1-2.74.05,8.86,8.86,0,0,1-2.54-.72,9.18,9.18,0,0,1-3.71-3.07,9,9,0,0,1-1.54-3.9,8.86,8.86,0,0,1,1.17-5.87,6.8,6.8,0,0,1,1.4-1.71,20.81,20.81,0,0,0-1.23,1.81,8.88,8.88,0,0,0-1,5.71,8.52,8.52,0,0,0,1.53,3.71,8.68,8.68,0,0,0,3.56,2.89,8.29,8.29,0,0,0,2.4.67,8.42,8.42,0,0,0,2.6-.06,8.63,8.63,0,0,0,7.11-7.37,8.09,8.09,0,0,0,0-2.6,8.59,8.59,0,0,0-.75-2.38,8.84,8.84,0,0,0-3-3.45,8.72,8.72,0,0,0-3.77-1.4,8.91,8.91,0,0,0-5.67,1.18A21.58,21.58,0,0,0,1072.54,5396.6Z"/><path class="cls-2" d="M1068.11,5385.53a1.21,1.21,0,0,1-.28-.15l-.83-.47-3.23-1.92h.1c-1.47,1.54-3.4,3.57-5.74,6v-.16c.84,1.27,1.78,2.68,2.77,4.19l0,.08,0,.08a20.19,20.19,0,0,0-2,5l0,.1-.1,0-4.87,1.21.14-.18c.05,2.62.1,5.4.16,8.31l-.16-.19,4.92,1,.13,0,0,.13a20.18,20.18,0,0,0,2.15,4.91l.07.11-.07.12-2.6,4.3,0-.29,6,5.77-.29,0,4.2-2.75.12-.08.13.07a20.43,20.43,0,0,0,5,1.95l.15,0,0,.15c.38,1.52.79,3.19,1.2,4.88l-.25-.2,8.32-.14-.25.2c.33-1.56.67-3.23,1-4.92l0-.15.15,0a19.81,19.81,0,0,0,4.9-2.13h0l.14-.08.13.08,4.29,2.61-.31,0,5.77-6,0,.31-2.75-4.2-.08-.13.07-.13a20.19,20.19,0,0,0,2-5l0-.15.15,0,4.88-1.2-.19.24c0-2.83-.09-5.6-.13-8.31l.18.23-4.92-1-.13,0,0-.13a19.9,19.9,0,0,0-2.13-4.92l-.07-.12.07-.11,2.61-4.29,0,.26-6-5.79.24,0-4.21,2.74-.09.06-.1-.05a20,20,0,0,0-5-2l-.1,0,0-.1c-.43-1.77-.82-3.37-1.18-4.88l.15.11-8.32.11.11-.09c-.42,2-.77,3.57-1,4.91v.05l-.05,0a20.65,20.65,0,0,0-3.8,1.46l-.9.47-.29.15.27-.19c.19-.12.48-.29.88-.51a19.92,19.92,0,0,1,3.79-1.54l0,.06c.27-1.34.59-3,1-4.93l0-.08h.09l8.31-.18h.12l0,.12c.37,1.5.77,3.1,1.21,4.87l-.12-.12a20.46,20.46,0,0,1,5.09,2h-.19l4.2-2.76.13-.09.11.11,6,5.76.13.12-.09.15c-.85,1.39-1.71,2.82-2.6,4.3v-.23a20.37,20.37,0,0,1,2.19,5l-.17-.16,4.92,1,.18,0v.18q.08,4.06.15,8.32v.19l-.18.05-4.88,1.2.18-.18a21,21,0,0,1-2,5.1v-.26l2.76,4.2.11.17-.14.15-5.77,6-.15.15-.17-.11-4.3-2.6h.26a20.29,20.29,0,0,1-5,2.18l.18-.19-1,4.92,0,.2h-.2l-8.32.15h-.2l0-.2c-.41-1.68-.81-3.35-1.19-4.88l.18.18a20.47,20.47,0,0,1-5.1-2h.25l-4.2,2.75-.16.11-.14-.14-6-5.78-.13-.12.09-.16,2.61-4.29v.23a20.63,20.63,0,0,1-2.17-5l.16.15-4.92-1-.16,0v-.16c0-2.91-.09-5.69-.13-8.31v-.15l.14,0,4.88-1.18-.12.12a20.65,20.65,0,0,1,2-5.08v.16l-2.73-4.21-.06-.09.07-.08,5.81-5.94,0-.05,0,0,3.17,2,.81.52Z"/><path class="cls-2" d="M1221.59,5566.75a22.49,22.49,0,0,1,5.5-2.39l1.13-5.45,9.2-.16,1.33,5.4a22.75,22.75,0,0,1,5.58,2.2l4.65-3.05,6.62,6.39-2.88,4.75a22.55,22.55,0,0,1,2.39,5.51l5.44,1.13.17,9.2-5.41,1.33a22.48,22.48,0,0,1-2.19,5.58l3,4.65-6.39,6.62-4.75-2.88a22.87,22.87,0,0,1-5.5,2.39l-1.14,5.44-9.2.16-1.32-5.4a22.56,22.56,0,0,1-5.58-2.19l-4.65,3-6.62-6.39,2.88-4.75a22.49,22.49,0,0,1-2.39-5.5l-5.45-1.14-.16-9.2,5.4-1.32a22.82,22.82,0,0,1,2.2-5.59l-3-4.65,6.39-6.62,4.76,2.89Zm4.9,12.25a9.88,9.88,0,1,0,14-.24A9.86,9.86,0,0,0,1226.49,5579Z"/><path class="cls-2" d="M1226.49,5579a7.71,7.71,0,0,1,1.84-1.61,9.81,9.81,0,0,1,6.44-1.52,10,10,0,0,1,4.38,1.55,10.29,10.29,0,0,1,3.54,4,9.56,9.56,0,0,1,.89,2.77,9.37,9.37,0,0,1,.06,3,10.07,10.07,0,0,1-8.33,8.63,9.14,9.14,0,0,1-3,0,9,9,0,0,1-2.8-.8,10,10,0,0,1-4.11-3.39,10,10,0,0,1-.42-10.81,7.66,7.66,0,0,1,1.55-1.9c.06.05-.59.65-1.35,2a9.84,9.84,0,0,0-1.1,6.32,9.7,9.7,0,0,0,5.64,7.3,9,9,0,0,0,2.66.74,9.23,9.23,0,0,0,2.87-.06,9.58,9.58,0,0,0,7.88-8.16,9,9,0,0,0,0-2.88,9.29,9.29,0,0,0-.83-2.63,9.76,9.76,0,0,0-3.33-3.83,9.64,9.64,0,0,0-4.17-1.54,9.77,9.77,0,0,0-6.27,1.31C1227.12,5578.39,1226.54,5579.06,1226.49,5579Z"/><path class="cls-2" d="M1221.59,5566.75a3.48,3.48,0,0,1-.31-.17l-.91-.52-3.58-2.12h.11l-6.36,6.65,0-.17,3.07,4.63,0,.09,0,.09a22.67,22.67,0,0,0-2.16,5.54l0,.11-.11,0-5.4,1.34.15-.2c.06,2.89.12,6,.18,9.2l-.17-.22,5.44,1.13.14,0,0,.13a22.42,22.42,0,0,0,2.38,5.44l.07.13-.07.12-2.88,4.76,0-.31,6.63,6.38-.33,0,4.65-3.05.14-.09.14.08a22.69,22.69,0,0,0,5.51,2.17l.16,0,0,.17c.42,1.69.87,3.53,1.33,5.4l-.27-.21,9.2-.17-.27.23c.36-1.73.74-3.58,1.13-5.45l0-.17.16,0a22.82,22.82,0,0,0,5.43-2.36h0l.15-.08.15.08,4.75,2.89-.35,0,6.39-6.62,0,.35-3-4.65-.09-.14.08-.15a22.21,22.21,0,0,0,2.18-5.51l0-.16.16,0,5.4-1.32-.2.27q-.09-4.71-.16-9.2l.21.25-5.44-1.14-.15,0-.05-.14a22.33,22.33,0,0,0-2.35-5.45l-.08-.13.08-.12,2.89-4.75,0,.29-6.61-6.4.27,0-4.66,3-.1.06-.11-.06a22.8,22.8,0,0,0-5.53-2.19l-.11,0,0-.11c-.48-2-.91-3.73-1.31-5.4l.17.13-9.21.12.13-.1c-.47,2.17-.85,4-1.17,5.43v.06h-.06a23.89,23.89,0,0,0-4.2,1.62l-1,.52-.33.17a2.11,2.11,0,0,1,.3-.21c.21-.13.53-.33,1-.56a21.47,21.47,0,0,1,4.2-1.71l-.06.07,1.1-5.46,0-.09h.1l9.2-.2h.13l0,.13c.41,1.67.85,3.44,1.34,5.4l-.14-.14a22.52,22.52,0,0,1,5.64,2.2h-.21l4.64-3.06.15-.1.12.12,6.63,6.38.14.13-.1.16-2.87,4.76v-.25a22.57,22.57,0,0,1,2.42,5.56l-.19-.18,5.45,1.13.2,0v.21q.09,4.48.18,9.2v.21l-.21.05-5.4,1.33.2-.2a22.74,22.74,0,0,1-2.22,5.65V5597l3.05,4.64.12.19-.15.16-6.39,6.62-.16.17-.19-.12-4.76-2.88h.29a23,23,0,0,1-5.57,2.42l.2-.22c-.39,1.87-.77,3.73-1.13,5.45l-.05.22h-.22l-9.2.16H1229l-.06-.21c-.45-1.86-.9-3.71-1.32-5.4l.2.2a23.21,23.21,0,0,1-5.64-2.23h.27l-4.65,3-.18.12-.15-.15-6.61-6.4-.14-.14.1-.17c1-1.65,2-3.28,2.89-4.75v.25a22.69,22.69,0,0,1-2.41-5.56l.18.16-5.44-1.14-.18,0v-.17c0-3.23-.1-6.31-.14-9.2v-.17l.15,0,5.41-1.31-.14.13a23,23,0,0,1,2.23-5.62v.18l-3-4.67-.06-.09.08-.09,6.43-6.58,0-.05.06,0,3.5,2.18.9.57A2.86,2.86,0,0,1,1221.59,5566.75Z"/><path class="cls-1" d="M1019.33,5422.42a31.68,31.68,0,0,1,8.42,1.3l5.48-5.69,11.18,6.78-2.5,7.49a32.27,32.27,0,0,1,5,6.87l7.89-.14,3.11,12.69-7.06,3.53a32.09,32.09,0,0,1-1.3,8.42l5.68,5.48-6.77,11.18-7.49-2.5a32.52,32.52,0,0,1-6.87,5l.14,7.89-12.69,3.11-3.53-7.06a32,32,0,0,1-8.42-1.3l-5.49,5.68L993,5484.42l2.5-7.49a32.43,32.43,0,0,1-5-6.87l-7.89.14-3.11-12.69,7.06-3.53a32,32,0,0,1,1.3-8.42l-5.69-5.49,6.78-11.17,7.49,2.5a32.18,32.18,0,0,1,6.87-5l-.14-7.89,12.69-3.11,3.53,7.06Zm-3.39,18.44a14,14,0,1,0,17,10.28A14,14,0,0,0,1015.94,5440.86Z"/><path class="cls-1" d="M1015.94,5440.86a10.38,10.38,0,0,1,3.42-.55,14.16,14.16,0,0,1,13,8.23,14.35,14.35,0,0,1,1.23,7.48,13.39,13.39,0,0,1-1,4,13.67,13.67,0,0,1-2.23,3.7,14.3,14.3,0,0,1-16.55,4.05,14.4,14.4,0,0,1-6.45-5.32,14.37,14.37,0,0,1-2.36-7.2,14.15,14.15,0,0,1,7.69-13.29,10.5,10.5,0,0,1,3.3-1.1,30.87,30.87,0,0,0-3.15,1.37,14,14,0,0,0-6.1,6.77,13.67,13.67,0,0,0,1.24,13,12.86,12.86,0,0,0,2.63,2.9,12.49,12.49,0,0,0,3.5,2.1,13.55,13.55,0,0,0,15.64-3.83,12.45,12.45,0,0,0,2.13-3.48,13,13,0,0,0,1-3.79,13.7,13.7,0,0,0-4.93-12.14,14,14,0,0,0-8.54-3.18C1017.16,5440.59,1016,5441,1015.94,5440.86Z"/><path class="cls-1" d="M1019.33,5422.42a2.32,2.32,0,0,1-.25-.43l-.69-1.32-2.7-5.26.14.07-12.67,3.18.15-.2c.06,2.39.11,5.05.17,7.9v.14l-.13.07a31.79,31.79,0,0,0-6.79,5l-.12.11-.15-.05-7.5-2.48.33-.12c-2.12,3.52-4.38,7.26-6.74,11.19l-.06-.39,5.7,5.47.14.14-.06.19a32.31,32.31,0,0,0-1.26,8.34v.2l-.19.1-7,3.54.19-.41c1,4,2,8.28,3.12,12.69l-.37-.29,7.89-.14h.24l.11.21a31.79,31.79,0,0,0,5,6.78l.17.16-.08.23c-.78,2.35-1.63,4.91-2.5,7.49l-.17-.46,11.18,6.77-.49.07,5.48-5.69.17-.17.23.07a32.38,32.38,0,0,0,8.31,1.28h.25l.11.22c1.18,2.37,2.36,4.73,3.53,7.06l-.46-.21,12.69-3.11-.3.4c0-2.66-.09-5.29-.13-7.9v-.24l.21-.11a31.68,31.68,0,0,0,6.79-5l.17-.16.22.08,7.49,2.5-.45.17L1055,5469l.06.46-5.68-5.49-.16-.16.07-.2a32.22,32.22,0,0,0,1.29-8.33V5455l.18-.09,7.07-3.52-.17.38-3.09-12.7.31.24-7.9.12h-.17l-.09-.15a32.29,32.29,0,0,0-5-6.83l-.12-.11.06-.15c.91-2.72,1.74-5.17,2.52-7.49l.1.28-11.14-6.82.22,0-5.52,5.65,0,0-.08,0a32.77,32.77,0,0,0-6.28-1.24l-1.58-.13a2.58,2.58,0,0,1-.52-.05,3,3,0,0,1,.52,0c.36,0,.89,0,1.59.06a31.25,31.25,0,0,1,6.34,1.13l-.12,0,5.44-5.72.1-.11.13.08,11.2,6.73.16.09-.06.18c-.76,2.32-1.57,4.78-2.47,7.5l-.06-.26a32.16,32.16,0,0,1,5.1,6.91l-.26-.15,7.9-.16h.24l.06.24c1,4,2,8.22,3.14,12.68l.06.26-.24.12-7.06,3.54.2-.31a32.73,32.73,0,0,1-1.3,8.52l-.1-.36,5.69,5.48.21.2-.15.26-6.76,11.17-.16.27-.29-.1-7.5-2.5.4-.08a32.68,32.68,0,0,1-7,5.1l.2-.35c0,2.6.1,5.24.15,7.89v.32l-.31.08-12.69,3.11-.31.08-.14-.29q-1.76-3.51-3.53-7.06l.35.22h0a32.57,32.57,0,0,1-8.51-1.31l.4-.11-5.49,5.68-.22.23-.27-.17-11.17-6.78-.27-.16.1-.3c.86-2.58,1.72-5.14,2.5-7.49l.09.39a32.45,32.45,0,0,1-5.09-6.95l.34.2-7.9.13h-.3l-.07-.29c-1.07-4.41-2.12-8.71-3.09-12.7l-.07-.28.26-.13,7.07-3.51-.2.3a32.12,32.12,0,0,1,1.33-8.5l.09.33-5.68-5.5-.18-.18.13-.21,6.8-11.16.12-.19.22.07,7.49,2.52-.27.06a32.64,32.64,0,0,1,6.93-5.06l-.12.21c0-2.84-.07-5.5-.1-7.89v-.16l.16,0,12.71-3,.1,0,0,.09c1.1,2.29,2,4.05,2.55,5.27.28.58.49,1,.65,1.37S1019.33,5422.41,1019.33,5422.42Z"/><path class="cls-1" d="M1221.18,5632.39a9,9,0,0,1,3-.47,12.23,12.23,0,0,1,11.17,7.09,12.46,12.46,0,0,1,1.06,6.44,12.35,12.35,0,0,1-2.81,6.63,12.31,12.31,0,0,1-14.25,3.49,12.35,12.35,0,0,1-5.55-4.58,12.4,12.4,0,0,1-2-6.2,12.16,12.16,0,0,1,1-5.58,12,12,0,0,1,5.58-5.87,9.21,9.21,0,0,1,2.83-.95,29.45,29.45,0,0,0-2.71,1.19,12,12,0,0,0-6.18,11.18,11.83,11.83,0,0,0,2,5.87,11.16,11.16,0,0,0,2.26,2.51,11.49,11.49,0,0,0,3,1.81,11.68,11.68,0,0,0,13.47-3.31,11.71,11.71,0,0,0,2.69-6.26,11.82,11.82,0,0,0-4.24-10.45,12,12,0,0,0-7.35-2.74A29.24,29.24,0,0,0,1221.18,5632.39Z"/><path class="cls-1" d="M1224.11,5616.51a2.18,2.18,0,0,1-.22-.37c-.14-.28-.34-.65-.6-1.14l-2.32-4.53.12.06-10.91,2.74.13-.17c0,2.06.09,4.35.15,6.8v.12l-.11.06a27.52,27.52,0,0,0-5.85,4.33l-.1.09-.13,0-6.46-2.14.29-.1c-1.83,3-3.78,6.25-5.82,9.64l0-.34,4.9,4.71.13.12,0,.17a27.2,27.2,0,0,0-1.09,7.18v.18l-.16.08-6.08,3.05.16-.35c.85,3.43,1.76,7.13,2.7,10.93l-.32-.25,6.8-.13h.2l.09.18a27.57,27.57,0,0,0,4.3,5.84l.14.14-.07.19c-.67,2-1.41,4.23-2.15,6.46l-.14-.4,9.62,5.83-.42.06,4.72-4.9.15-.15.2.06a27.2,27.2,0,0,0,7.15,1.1h.22l.09.19,3,6.08-.39-.18,10.93-2.68-.26.34c0-2.29-.08-4.55-.12-6.8v-.2l.18-.1a27.72,27.72,0,0,0,5.85-4.29l.14-.14.2.07,6.45,2.15-.39.15,5.85-9.62,0,.39-4.89-4.73-.14-.13.06-.18a27.5,27.5,0,0,0,1.11-7.17v-.18l.16-.08,6.09-3-.16.33c-.93-3.85-1.81-7.48-2.65-10.94l.26.2-6.8.1h-.15l-.07-.13a27.36,27.36,0,0,0-4.29-5.87l-.1-.1,0-.13,2.17-6.45.09.24-9.6-5.88.2,0-4.76,4.86,0,.05-.06,0a28.69,28.69,0,0,0-5.41-1.07l-1.36-.11a2.48,2.48,0,0,1-.45,0,2.28,2.28,0,0,1,.45,0c.3,0,.76,0,1.37.06a26.76,26.76,0,0,1,5.46,1l-.11,0,4.69-4.93.09-.09.1.07,9.65,5.79.14.08,0,.16c-.66,2-1.36,4.11-2.13,6.46l0-.23a27.89,27.89,0,0,1,4.39,6l-.22-.12,6.8-.14h.21l0,.2c.86,3.46,1.75,7.08,2.7,10.93l.06.22-.21.1-6.08,3.05.17-.26a27.93,27.93,0,0,1-1.12,7.34l-.08-.32,4.9,4.72.18.18-.13.22-5.83,9.63-.13.22-.25-.08-6.46-2.15.34-.08a27.48,27.48,0,0,1-6,4.4l.17-.3q.06,3.36.13,6.8v.27l-.27.07-10.93,2.68-.26.07-.13-.25-3-6.09.31.2h0a28.17,28.17,0,0,1-7.34-1.14l.35-.09-4.73,4.9-.19.19-.23-.14-9.63-5.84-.23-.14.09-.26c.74-2.22,1.48-4.43,2.16-6.45l.07.34a28.62,28.62,0,0,1-4.39-6l.3.17-6.8.11h-.26l-.06-.25c-.93-3.8-1.83-7.5-2.67-10.94l0-.24.22-.11,6.08-3-.16.26a27.78,27.78,0,0,1,1.14-7.33l.08.29-4.89-4.74-.16-.15.12-.19,5.86-9.61.1-.17.19.07,6.44,2.17-.23.05a28,28,0,0,1,6-4.36l-.11.19c0-2.45-.06-4.74-.09-6.8V5613l.13,0,11-2.61.09,0,0,.07,2.2,4.54.56,1.18Q1224.11,5616.49,1224.11,5616.51Z"/><rect class="cls-1" x="1035.32" y="5567.85" width="45.67" height="4.39" transform="translate(2116.31 11140.09) rotate(180)"/><rect class="cls-1" x="1035.32" y="5560.43" width="45.67" height="4.39" transform="translate(2116.31 11125.25) rotate(180)"/><rect class="cls-1" x="1061.23" y="5575.8" width="19.76" height="4.39" transform="translate(2142.22 11155.99) rotate(180)"/><path class="cls-2" d="M1294,5760.05c.69-2.75-1.13-5.49-3.16-7.47s-4.45-3.75-5.51-6.38c-1.73-4.25.53-9.79-2.39-13.33-1.72-2.09-4.79-2.77-6.31-5a11.42,11.42,0,0,1-1.39-4,40.58,40.58,0,0,0-10.2-18.83,35.25,35.25,0,0,0,4.06,18.18c1.19,2.24,2.64,4.41,3,6.9.65,4.06-1.59,8.25-.57,12.22,1.17,4.55,6.3,7.57,6.57,12.25.23,4-3.21,7.46-2.93,11.42a10.66,10.66,0,0,0,1.79,4.69c3.09,5.08,7.62,8.56,14.44,8.41l8.36.24Z"/><path class="cls-1" d="M1301.46,5779.57a6.73,6.73,0,0,0,2.3-.06,13.74,13.74,0,0,0,2.71-.7,11.45,11.45,0,0,0,3.35-1.86,4.51,4.51,0,0,0,1.36-1.84,8.22,8.22,0,0,0,.38-2.5,25.32,25.32,0,0,1,.18-2.7,7.6,7.6,0,0,1,1-2.7c1-1.73,2.6-3.38,3.12-5.74s.13-4.81-.27-7.32-.8-5.23.15-7.85,2.7-5,3.6-7.94.45-6.18.63-9.34a12.12,12.12,0,0,1,1.06-4.64c.67-1.49,1.6-2.89,2.32-4.45,1.46-3.16,1.71-6.72,2.09-10.22.19-1.77.38-3.55.57-5.35a26.36,26.36,0,0,1,.9-5.35,46.14,46.14,0,0,1,2-5.18,16.67,16.67,0,0,0,.95-2.71,28.07,28.07,0,0,0,.26-2.87,34.07,34.07,0,0,0-.26-5.79c-.24-1.92-.6-3.83-.81-5.76,0-.12,0-.23,0-.34l0-.38-.34.17a13,13,0,0,0-4.48,3.82,20.82,20.82,0,0,0-2.73,5.11c-1.38,3.6-1.86,7.37-2.54,11a29.7,29.7,0,0,1-3.38,10.13c-.91,1.49-2,2.86-3,4.31a11.75,11.75,0,0,0-2,4.78c-.48,3.54,1.49,6.63,1.1,9.76a11,11,0,0,1-1.5,4.35c-.75,1.34-1.64,2.58-2.48,3.83a25.77,25.77,0,0,0-2.22,3.87,12.28,12.28,0,0,0-1,4.19c-.19,2.82.23,5.49,0,8a18.44,18.44,0,0,1-2,6.88c-1,2.06-2.11,3.93-3,5.73-.47.91-.9,1.79-1.25,2.67a12.33,12.33,0,0,0-.72,2.65,16.63,16.63,0,0,0,0,4.77,12,12,0,0,0,2.43,6.07,6.18,6.18,0,0,0,.68.73,3.33,3.33,0,0,0,.55.46c.31.23.48.33.48.33a10.57,10.57,0,0,1-1.63-1.59,12.13,12.13,0,0,1-2.3-6,16.24,16.24,0,0,1,.08-4.7,12.62,12.62,0,0,1,.72-2.58c.35-.87.79-1.74,1.26-2.64.94-1.79,2.07-3.65,3.09-5.72a18.82,18.82,0,0,0,2.09-7c.21-2.58-.19-5.26,0-8a11.85,11.85,0,0,1,1-4.05,23.81,23.81,0,0,1,2.19-3.79c.84-1.24,1.74-2.49,2.51-3.86a11.34,11.34,0,0,0,1.57-4.52c.38-3.34-1.57-6.45-1.08-9.74a11.37,11.37,0,0,1,2-4.57c.95-1.43,2.06-2.8,3-4.33a30.09,30.09,0,0,0,3.45-10.29c.69-3.62,1.18-7.34,2.53-10.87a19.67,19.67,0,0,1,2.66-5,12.45,12.45,0,0,1,4.29-3.67l-.39-.21c0,.11,0,.22,0,.34.22,1.95.58,3.87.82,5.77a34,34,0,0,1,.25,5.7,27.84,27.84,0,0,1-.24,2.79,17.66,17.66,0,0,1-.92,2.61,46.64,46.64,0,0,0-2,5.24,27,27,0,0,0-.91,5.43c-.19,1.8-.37,3.59-.56,5.35-.38,3.52-.62,7-2,10.07-.7,1.52-1.63,2.93-2.31,4.46a13,13,0,0,0-1.1,4.82c-.16,3.22.28,6.37-.58,9.23s-2.66,5.23-3.56,7.94-.55,5.55-.14,8,.84,5,.31,7.19-2,3.88-3,5.66a7.72,7.72,0,0,0-1,2.8,24,24,0,0,0-.16,2.74,8.49,8.49,0,0,1-.35,2.43,4.42,4.42,0,0,1-1.28,1.77,11.67,11.67,0,0,1-3.26,1.86,14.76,14.76,0,0,1-2.68.74,11.53,11.53,0,0,1-1.7.18C1301.66,5779.56,1301.46,5779.57,1301.46,5779.57Z"/><path class="cls-1" d="M1327.3,5681s0,.09-.07.26l-.18.75c-.17.66-.36,1.65-.66,2.9s-1.08,2.64-1.71,4.37-1.34,3.71-2,5.94-1.17,4.71-1.75,7.37a30.47,30.47,0,0,1-2.63,8.17c-.67,1.36-1.44,2.74-2,4.25a19.84,19.84,0,0,0-1.18,4.8,97.05,97.05,0,0,1-1.74,10.12l-4.62,19.34c-1.45,5.92-2.76,11.27-3.87,15.77s-2,8.09-2.56,10.64c-.29,1.23-.51,2.2-.67,2.9-.07.31-.12.56-.16.76a.74.74,0,0,0,0,.26.9.9,0,0,0,.09-.25l.21-.74c.19-.7.45-1.66.77-2.88.66-2.54,1.59-6.16,2.73-10.6s2.49-9.83,4-15.74,3-12.49,4.66-19.34a93.31,93.31,0,0,0,1.74-10.17,19.31,19.31,0,0,1,1.14-4.68c.58-1.47,1.33-2.84,2-4.22a31.22,31.22,0,0,0,2.62-8.3c.55-2.66,1.08-5.13,1.68-7.36s1.23-4.21,1.87-5.93,1.33-3.15,1.63-4.43.43-2.26.56-2.93c0-.31.1-.56.13-.76A.7.7,0,0,0,1327.3,5681Z"/><path class="cls-1" d="M1302.93,5779.59c5.44-3.28,7-13.13,4.64-19.05s-6.32-11.31-7-17.62c-.5-4.86,1.06-9.85-.1-14.59-1.56-6.4-7.85-11.33-7.81-17.92,0-3.7,2.1-7.19,1.91-10.88-.23-4.52-3.73-8.1-5.9-12.08-3.33-6.08-3.59-13.3-4.75-20.14s-3.82-14.16-9.91-17.49c-.86,5.81-2.37,9.8-1.84,17.68.18,2.82,3.5,8.22,4,14.42.29,3.7.5,7.41.74,11.12s.5,7.27,1.81,10.64c1,2.58,2.61,4.92,3.36,7.59,1.42,5-.37,10.47.78,15.55,1,4.31,4,8,4.61,12.37.89,6.14-3,12.55-1,18.4,1,2.9,3.43,5.22,4.13,8.22.54,2.33,0,4.8.47,7.14.79,3.76,8,6.65,11.83,6.39"/><path class="cls-3" d="M1275.58,5655.58a1.64,1.64,0,0,0,0,.33c0,.24.08.56.13.95.13.84.28,2.07.57,3.66s1.15,3.41,1.83,5.58,1.41,4.66,2,7.46,1.18,5.89,1.74,9.23a39.17,39.17,0,0,0,2.86,10.43c.78,1.74,1.64,3.48,2.3,5.33a23.76,23.76,0,0,1,1.18,5.9,119.1,119.1,0,0,0,1.68,12.7l4.85,24.26,4.17,19.76c1.21,5.59,2.18,10.13,2.86,13.31.35,1.54.62,2.75.81,3.61l.22.94a1.9,1.9,0,0,0,.09.31,1.11,1.11,0,0,0,0-.32c0-.24-.1-.56-.17-1-.16-.87-.4-2.08-.7-3.63-.64-3.19-1.56-7.74-2.69-13.35l-4.07-19.78c-1.47-7.46-3.1-15.65-4.8-24.25a117.9,117.9,0,0,1-1.68-12.67,24.13,24.13,0,0,0-1.23-6c-.67-1.89-1.55-3.64-2.33-5.37a38.76,38.76,0,0,1-2.87-10.3c-.58-3.33-1.15-6.43-1.81-9.23s-1.39-5.31-2.13-7.48-1.57-4-1.9-5.52-.51-2.81-.67-3.64c-.08-.39-.14-.7-.18-.94A1.86,1.86,0,0,0,1275.58,5655.58Z"/><path class="cls-2" d="M1253.25,5768.4a17.81,17.81,0,0,0-16.45,2.7,21.45,21.45,0,0,0-31.8-14.36,15,15,0,0,0-21.81-13q-6.2-21.75-12.41-43.52l-31.6,1q-7.4,24.44-14.8,48.88c-7.15-6.65-17.1-10.92-26.72-9.2s-18.08,10.6-17.37,20.34a18.62,18.62,0,0,0-26.44,17.16l210.64,2.3A17.83,17.83,0,0,0,1253.25,5768.4Z"/></g><g id="Plant"><path class="cls-4" d="M999.37,5652.82c-8.76-13.4-8.42-33,2-45.11,3.25-3.76,7.79-7,12.74-6.6s9.15,4.78,10.7,9.63,1,10.1.1,15.1c-1.27,7-3.39,14.19-8.26,19.39s-11.06,11-17.32,7.59"/><path class="cls-4" d="M1003.28,5716.87a20,20,0,0,1,5.58-22.74c2-1.64,4.65-2.92,7.16-2.25s4.28,3.29,4.64,5.93a16.53,16.53,0,0,1-1.32,7.79c-1.29,3.5-3,7-6,9.24s-7.14,4.35-10.05,2"/><path class="cls-4" d="M982.15,5712.27a29,29,0,0,0-14.6-30.58c-3.34-1.74-7.45-2.77-10.81-1.08s-5.1,5.93-4.83,9.77,2.12,7.39,4.16,10.66c2.86,4.57,6.36,9,11.24,11.32s11.4,4.06,14.84-.09"/><path class="cls-4" d="M983.67,5680.15c4.19-13.54-2.92-29.95-14.77-37.72-3.68-2.41-8.34-4.08-12.45-2.52s-6.62,6.3-6.76,10.8,1.6,8.84,3.59,12.88c2.79,5.66,6.34,11.25,11.75,14.49s14.15,6.49,18.64,2.07"/><path class="cls-5" d="M992.09,5746.3a3,3,0,0,1-.13-.65c-.08-.49-.17-1.12-.28-1.89-.06-.42-.13-.87-.19-1.36l-.31-1.61c-.22-1.16-.45-2.48-.83-3.91-.18-.72-.36-1.47-.55-2.26s-.46-1.58-.7-2.41c-.46-1.68-1.12-3.42-1.75-5.27a91.91,91.91,0,0,0-12-22.35c-1.2-1.54-2.28-3.06-3.43-4.36l-1.62-1.93-1.58-1.7c-1-1.11-2-2-2.8-2.85q-.61-.61-1.17-1.14l-1-.92-1.42-1.27a3.49,3.49,0,0,1-.47-.48s.2.12.55.39l1.49,1.19c.32.27.68.57,1.07.88l1.2,1.12c.87.8,1.87,1.71,2.87,2.8l1.62,1.69,1.65,1.91c1.18,1.3,2.28,2.81,3.49,4.36a88.33,88.33,0,0,1,12.07,22.48c.61,1.87,1.27,3.62,1.7,5.32.24.84.46,1.65.68,2.43s.35,1.55.51,2.28c.36,1.45.56,2.78.75,3.94.1.58.18,1.12.27,1.63s.09,1,.14,1.37c.07.78.13,1.41.17,1.91A2.37,2.37,0,0,1,992.09,5746.3Z"/><path class="cls-5" d="M991.78,5748.74a1,1,0,0,1,0-.27c0-.21,0-.47.06-.79.07-.73.16-1.74.28-3,.06-.65.14-1.38.21-2.17s.09-1.66.13-2.59c.07-1.86.25-4,.19-6.31,0-1.18,0-2.4,0-3.68s-.14-2.6-.2-4c-.09-2.75-.47-5.67-.8-8.75a125.26,125.26,0,0,0-11.4-38.45c-1.4-2.76-2.68-5.41-4.1-7.77-.7-1.19-1.32-2.37-2-3.45s-1.36-2.1-2-3.09c-1.23-2-2.53-3.67-3.6-5.19-.55-.76-1-1.47-1.52-2.11s-.95-1.18-1.36-1.7l-1.87-2.37-.48-.62c-.11-.15-.16-.22-.15-.23s.07.06.19.19l.52.59,2,2.3,1.41,1.68c.49.62,1,1.33,1.56,2.07,1.1,1.51,2.43,3.18,3.67,5.17l2,3.08c.7,1.08,1.33,2.25,2,3.44,1.45,2.36,2.75,5,4.17,7.78a122.86,122.86,0,0,1,11.45,38.61c.31,3.1.67,6,.74,8.8.06,1.38.17,2.71.17,4s0,2.51,0,3.69c0,2.35-.17,4.47-.27,6.33-.06.93-.1,1.8-.17,2.6s-.19,1.51-.27,2.17c-.16,1.26-.29,2.26-.38,3-.05.31-.09.57-.12.77A1,1,0,0,1,991.78,5748.74Z"/><path class="cls-5" d="M1014.59,5617.29a1,1,0,0,1-.11.25l-.38.7c-.36.65-.86,1.55-1.5,2.67-.32.59-.7,1.22-1.07,1.94s-.76,1.51-1.18,2.35l-1.35,2.71c-.45,1-.89,2-1.37,3.1s-1,2.22-1.48,3.42l-1.46,3.77c-.25.66-.5,1.32-.76,2s-.47,1.38-.71,2.09l-1.46,4.35c-1.86,6-3.62,12.69-5.11,19.79s-2.44,14-3.19,20.2-1.11,11.9-1.24,16.66c-.12,2.37-.14,4.52-.15,6.41s0,3.52,0,4.85,0,2.31,0,3.06c0,.32,0,.59,0,.8a.8.8,0,0,1,0,.27.94.94,0,0,1,0-.27l-.06-.79c0-.75-.08-1.77-.15-3.07s-.1-3-.1-4.85,0-4,.07-6.43c.07-4.76.5-10.43,1.12-16.7s1.71-13.12,3.15-20.26,3.27-13.82,5.16-19.83c.51-1.49,1-2.95,1.5-4.36l.72-2.09.78-2,1.49-3.77c.5-1.2,1-2.33,1.52-3.42s.94-2.12,1.41-3.09,1-1.85,1.4-2.69l1.21-2.34c.39-.72.79-1.34,1.13-1.92l1.59-2.62c.18-.27.32-.49.43-.67S1014.58,5617.28,1014.59,5617.29Z"/><path class="cls-5" d="M1011.61,5699.51a11.07,11.07,0,0,1-.93,1.63c-.64,1-1.52,2.54-2.55,4.44s-2.17,4.2-3.32,6.81a83.62,83.62,0,0,0-5.46,17.69c-.53,2.8-.9,5.34-1.1,7.49s-.35,3.89-.4,5.1a11.74,11.74,0,0,1-.15,1.87,12,12,0,0,1-.07-1.88c0-1.21,0-3,.21-5.13s.49-4.73,1-7.55a77.2,77.2,0,0,1,5.5-17.81,75.52,75.52,0,0,1,3.45-6.79c1.08-1.88,2-3.37,2.72-4.36A13.55,13.55,0,0,1,1011.61,5699.51Z"/><polygon class="cls-6" points="974.89 5740.27 1013.37 5740.27 1008.71 5779.58 979.68 5779.58 974.89 5740.27"/><polygon class="cls-5" points="976.29 5775.33 979.56 5779.58 1008.71 5779.58 1012.08 5775.47 976.29 5775.33"/><path class="cls-7" d="M1011.87,5751.83c0,.16-8,.29-17.83.29s-17.84-.13-17.84-.29,8-.28,17.84-.28S1011.87,5751.67,1011.87,5751.83Z"/><path class="cls-7" d="M1011.87,5754.45c0,.16-8,.29-17.83.29s-17.84-.13-17.84-.29,8-.29,17.84-.29S1011.87,5754.29,1011.87,5754.45Z"/><path class="cls-7" d="M1011.39,5757c0,.16-7.71.29-17.21.29S977,5757.14,977,5757s7.7-.28,17.21-.28S1011.39,5756.82,1011.39,5757Z"/><path class="cls-5" d="M980.77,5655.56a1.58,1.58,0,0,1,0,.38c0,.29,0,.64-.08,1.07-.1,1-.24,2.3-.4,3.91-.35,3.31-.86,7.87-1.45,12.9,0,.2-.05.39-.07.57l0,.17h-.17c-4.94.08-9.39.12-12.61.14h-3.8l-1,0a1.77,1.77,0,0,1-.36,0s.12,0,.36,0l1-.05,3.8-.12c3.21-.09,7.66-.18,12.6-.26l-.19.17.07-.56c.59-5,1.14-9.59,1.57-12.89.21-1.6.38-2.92.51-3.9.07-.42.12-.77.17-1.06A1.2,1.2,0,0,1,980.77,5655.56Z"/><path class="cls-5" d="M972,5643.81a1.93,1.93,0,0,1,0,.39c0,.29,0,.66,0,1.1,0,1,0,2.39,0,4.05,0,3.43-.14,8.16-.27,13.38,0,.21,0,.42,0,.62v.2h-.2a117.63,117.63,0,0,0-12.94-.29c-1.65.05-3,.12-3.9.16l-1.06.05a1.87,1.87,0,0,1-.38,0s.13,0,.37-.07.59-.08,1-.12c.92-.1,2.25-.21,3.91-.29a101.78,101.78,0,0,1,13,.17l-.21.19c0-.2,0-.41,0-.62.13-5.22.27-9.95.38-13.37.07-1.67.13-3,.17-4.05,0-.45,0-.81.06-1.11S972,5643.81,972,5643.81Z"/><path class="cls-5" d="M961.78,5639.81a8.82,8.82,0,0,1,.24,1.12c.14.8.33,1.84.57,3.1.5,2.61,1.27,6.21,2.37,10.15l.12.42-.39-.19-.46-.22a33,33,0,0,0-10.26-3c-1.36-.17-2.48-.24-3.25-.26a8.28,8.28,0,0,1-1.2-.07,1,1,0,0,1,.31,0c.21,0,.51,0,.89,0a28,28,0,0,1,3.28.13,31.24,31.24,0,0,1,10.4,2.92l.46.23-.27.23a98.8,98.8,0,0,1-2.27-10.21c-.22-1.32-.37-2.39-.45-3.12A5.49,5.49,0,0,1,961.78,5639.81Z"/><path class="cls-5" d="M1016.12,5711.46c0,.06-1.12-.05-2.91-.12a49,49,0,0,0-7,.22l-1.61.2-.18,0,0-.19c-.41-2.32-.76-4.37-1-5.85a16.92,16.92,0,0,1-.31-2.37,15.87,15.87,0,0,1,.55,2.33c.3,1.46.7,3.5,1.13,5.83l-.22-.16c.53-.07,1.07-.15,1.63-.2a38.78,38.78,0,0,1,7.05-.12c.9.07,1.63.16,2.13.24A3,3,0,0,1,1016.12,5711.46Z"/><path class="cls-5" d="M1019.75,5704.24c0,.06-1.07-.19-2.82-.41a30.91,30.91,0,0,0-6.82-.06c-.42,0-.82.09-1.21.15l-.2,0,0-.2c-.24-2.39-.44-4.51-.56-6a15.93,15.93,0,0,1-.13-2.46,16.74,16.74,0,0,1,.38,2.43c.2,1.52.44,3.63.69,6l-.22-.17c.39-.05.81-.11,1.23-.15a26.55,26.55,0,0,1,6.9.18c.88.14,1.58.31,2,.43A2.39,2.39,0,0,1,1019.75,5704.24Z"/><path class="cls-5" d="M1022.36,5635.82a2,2,0,0,1-.38.2l-1.13.5-4.16,1.77-13.78,5.71-.75.3-.17.08-.08-.18c-2.27-5.14-4.32-9.76-5.82-13.15l-1.72-4c-.18-.44-.33-.8-.44-1.09a2.43,2.43,0,0,1-.14-.38s.08.11.21.35l.51,1.06c.45,1,1.07,2.3,1.82,3.93l5.94,13.1-.25-.1.74-.3,13.83-5.61,4.21-1.65,1.15-.44A2,2,0,0,1,1022.36,5635.82Z"/><path class="cls-5" d="M1025.73,5619.19s-.11.1-.34.25-.6.39-1,.66l-3.75,2.34-12.54,7.64-.2.12-.08-.22-.23-.6c-2-5.52-3.89-10.5-5.25-14.18-.64-1.78-1.17-3.24-1.55-4.31-.16-.48-.3-.87-.4-1.18a2,2,0,0,1-.12-.42,2.4,2.4,0,0,1,.19.4l.47,1.15c.41,1.06,1,2.5,1.67,4.27l5.36,14.13.22.61-.28-.1c4.92-2.95,9.34-5.6,12.6-7.54l3.82-2.24,1-.59Z"/><path class="cls-5" d="M1024.63,5610.32a5.1,5.1,0,0,1-.83.49c-.54.3-1.32.74-2.27,1.33a40.8,40.8,0,0,0-7,5.46l-.48.47.16-.66c.17-.69.33-1.41.45-2.16a25,25,0,0,0-.55-10.25,31,31,0,0,0-1-3,6.61,6.61,0,0,1-.41-1.08,6.9,6.9,0,0,1,.55,1,22.77,22.77,0,0,1,1.11,3,23.92,23.92,0,0,1,.66,10.39c-.12.76-.28,1.5-.45,2.2l-.32-.19a36.59,36.59,0,0,1,7.11-5.4c1-.56,1.78-1,2.34-1.23A5,5,0,0,1,1024.63,5610.32Z"/><path class="cls-5" d="M980.72,5696.61a7.14,7.14,0,0,1-.18,1c-.14.64-.33,1.56-.54,2.71a66.6,66.6,0,0,0-1,9.11v.18h-.17l-.87.05c-3.81.23-7.27.42-9.77.53l-3,.12a5.41,5.41,0,0,1-1.09,0,4.92,4.92,0,0,1,1.08-.14l3-.24c2.5-.19,6-.42,9.77-.65l.86-.05-.18.19a56.5,56.5,0,0,1,1.16-9.15c.25-1.15.48-2.06.66-2.69A4.36,4.36,0,0,1,980.72,5696.61Z"/><path class="cls-5" d="M973.15,5685.77a4.19,4.19,0,0,1-.06,1c-.08.71-.19,1.63-.31,2.74-.28,2.31-.69,5.53-1.18,9.13l0,.16h-.16l-1.24.08c-3.91.26-7.44.67-10,1l-3,.4a7.42,7.42,0,0,1-1.11.12,5.34,5.34,0,0,1,1.09-.26c.7-.15,1.73-.33,3-.53,2.54-.4,6.07-.85,10-1.12l1.25-.08-.18.17c.49-3.6.95-6.81,1.3-9.12.17-1.1.32-2,.43-2.72A6.07,6.07,0,0,1,973.15,5685.77Z"/><path class="cls-5" d="M964.25,5681.1c.06,0-.17,1.06-.45,2.77a50.28,50.28,0,0,0-.62,6.81v.22l-.22,0-.64-.08a60,60,0,0,0-7.27-.43l-2.21,0a3.26,3.26,0,0,1-.82,0,4.06,4.06,0,0,1,.81-.13c.52,0,1.27-.11,2.21-.15a47,47,0,0,1,7.32.32l.65.09-.22.19a39.38,39.38,0,0,1,.75-6.85c.17-.86.34-1.55.47-2A3.11,3.11,0,0,1,964.25,5681.1Z"/><path class="cls-5" d="M1015,5691.94a131,131,0,0,1-3.57,7.75,18.69,18.69,0,0,1,1.5-4A18.23,18.23,0,0,1,1015,5691.94Z"/><path class="cls-5" d="M1019.79,5697.06a43,43,0,0,0-4.37.89,41.76,41.76,0,0,0-4.11,1.74,10,10,0,0,1,4-2.11A10.11,10.11,0,0,1,1019.79,5697.06Z"/></g><g id="Gears"><path class="cls-8" d="M1266.54,5478.88a25.32,25.32,0,0,1,2.49-6.29l-3.43-5.25,7.22-7.46,5.35,3.26a25.27,25.27,0,0,1,6.21-2.69l1.29-6.14,10.37-.17,1.49,6.09a25.63,25.63,0,0,1,6.29,2.49l5.25-3.43,7.45,7.22-3.25,5.36a26,26,0,0,1,2.69,6.2l6.14,1.29.16,10.38-6.09,1.48a25.09,25.09,0,0,1-2.49,6.29l3.44,5.25-7.22,7.46-5.36-3.26a25.49,25.49,0,0,1-6.21,2.69l-1.28,6.14-10.38.17-1.48-6.09a25.71,25.71,0,0,1-6.29-2.49l-5.25,3.43-7.46-7.22,3.26-5.36a25.2,25.2,0,0,1-2.69-6.2l-6.14-1.29-.17-10.38,6.09-1.48Zm13.68,5.88a11.13,11.13,0,1,0,11-11.31A11.13,11.13,0,0,0,1280.22,5484.76Z"/><path class="cls-8" d="M1236.57,5523.66a12.52,12.52,0,0,1,1.21-3.06l-1.67-2.55,3.51-3.62,2.6,1.59a11.89,11.89,0,0,1,3-1.31l.63-3,5-.08.72,3a12.52,12.52,0,0,1,3.06,1.21l2.54-1.66,3.62,3.5-1.58,2.6a12.26,12.26,0,0,1,1.31,3l3,.63.08,5-3,.73a12.45,12.45,0,0,1-1.21,3.05l1.67,2.55-3.5,3.62-2.6-1.59a12.12,12.12,0,0,1-3,1.31l-.62,3-5,.08-.72-2.95a12.45,12.45,0,0,1-3-1.21l-2.55,1.66-3.62-3.5,1.58-2.6a12.23,12.23,0,0,1-1.3-3l-3-.63-.08-5,3-.72Zm6.64,2.85a5.41,5.41,0,1,0,5.32-5.49A5.4,5.4,0,0,0,1243.21,5526.51Z"/><path class="cls-9" d="M1211.55,5478.36a15.71,15.71,0,0,1,1.55-3.92l-2.14-3.26,4.49-4.63,3.33,2a15.82,15.82,0,0,1,3.86-1.67l.8-3.82,6.45-.1.92,3.78a15.87,15.87,0,0,1,3.91,1.55l3.27-2.13,4.63,4.48-2,3.34a15.66,15.66,0,0,1,1.67,3.86l3.82.79.1,6.45-3.79.93a15.77,15.77,0,0,1-1.54,3.91l2.13,3.26-4.49,4.64-3.33-2a15.85,15.85,0,0,1-3.86,1.68l-.8,3.81-6.45.11-.92-3.79a15.64,15.64,0,0,1-3.91-1.55l-3.27,2.14-4.63-4.49,2-3.33a16,16,0,0,1-1.68-3.86l-3.81-.8-.11-6.45,3.79-.92Zm8.5,3.65a6.92,6.92,0,1,0,6.81-7A6.92,6.92,0,0,0,1220.05,5482Z"/><path class="cls-5" d="M1220.05,5482a1.29,1.29,0,0,1-.06-.44,5.5,5.5,0,0,1,.11-1.28,6.92,6.92,0,0,1,2.43-4,7.19,7.19,0,0,1,6.8-1.22,7.23,7.23,0,0,1,.22,13.63,7.16,7.16,0,0,1-6.83-1,6.87,6.87,0,0,1-2.56-4,4.87,4.87,0,0,1-.15-1.27c0-.3,0-.45,0-.45s.07.62.38,1.65a6.94,6.94,0,0,0,2.6,3.6,6.6,6.6,0,1,0-.18-10.59,6.88,6.88,0,0,0-2.47,3.68C1220.1,5481.39,1220.12,5482,1220.05,5482Z"/><path class="cls-5" d="M1211.55,5478.36s-.3.1-.93.28l-2.83.75.09-.11c0,1.67.1,3.84.17,6.45l-.15-.18,3.83.77.12,0,0,.13a15.68,15.68,0,0,0,1.67,3.79l.08.13-.08.12-2,3.34,0-.32,4.66,4.47-.36,0,3.25-2.14.16-.1.16.09a15.52,15.52,0,0,0,3.84,1.5l.18,0,0,.19c.29,1.17.6,2.46.93,3.78l-.32-.25,6.45-.12-.33.27c.25-1.19.52-2.49.79-3.81l0-.21.2-.06a15.47,15.47,0,0,0,3.77-1.64l.18-.11.18.11,3.34,2-.44.06,4.48-4.64,0,.45-2.14-3.26-.12-.19.11-.19a15.53,15.53,0,0,0,1.51-3.82h0l.27-.27h0l.06,0,.12,0,.24-.06.48-.12,1-.23,1.88-.46-.27.36c0-2.18-.07-4.33-.11-6.45l.29.35-3.81-.8-.22-.05,0-.21a15.49,15.49,0,0,0-1.64-3.77l-.11-.18.11-.19c.69-1.12,1.37-2.23,2-3.33l.06.43-4.63-4.49.42,0-3.27,2.13-.16.1-.18-.09a15.58,15.58,0,0,0-3.82-1.53l-.19,0,0-.18c-.31-1.3-.61-2.56-.91-3.79l.3.23-6.45.08.27-.22c-.28,1.34-.55,2.6-.81,3.81l0,.16-.15,0a15.61,15.61,0,0,0-3.8,1.63l-.13.07-.12-.07-3.32-2.05.26,0-4.52,4.59,0-.2c.83,1.31,1.52,2.38,2.09,3.29l0,.06,0,.06a21.06,21.06,0,0,0-1.65,3.86.82.82,0,0,1,0-.26c0-.17.1-.43.2-.77a14.35,14.35,0,0,1,1.21-2.94v.12l-2.18-3.24-.07-.11.09-.09,4.45-4.67.12-.13.15.09,3.35,2h-.25a16.07,16.07,0,0,1,3.91-1.73l-.19.2c.25-1.21.51-2.47.78-3.82l0-.21h.22l6.45-.13h.25l0,.24c.31,1.22.62,2.48.94,3.78l-.23-.23a15.7,15.7,0,0,1,4,1.57h-.34l3.26-2.14.23-.15.19.19,4.65,4.47.19.2-.14.24-2,3.33v-.37a16.59,16.59,0,0,1,1.72,3.95l-.28-.26,3.82.8.28.06v.29q0,3.18.11,6.45v.29l-.28.07-1.89.46-1,.23-.48.12-.23.06-.12,0-.06,0h-.06l.27-.26h0a17,17,0,0,1-1.58,4l0-.38,2.13,3.26.16.25-.2.21-4.49,4.63-.2.2-.24-.15-3.33-2h.36a16,16,0,0,1-3.94,1.7l.24-.26c-.28,1.32-.55,2.62-.8,3.81l-.06.27h-.27l-6.45.09h-.26l-.06-.26c-.32-1.32-.63-2.61-.92-3.79l.23.24a16.71,16.71,0,0,1-4-1.59h.31l-3.27,2.12-.19.12-.17-.16-4.61-4.5-.15-.15.11-.18,2-3.32v.25a15.88,15.88,0,0,1-1.67-3.92l.16.15-3.81-.83-.15,0v-.15c0-2.61,0-4.77,0-6.45v-.09l.09,0,2.82-.63.73-.15A.89.89,0,0,1,1211.55,5478.36Z"/><g class="cls-10"><path class="cls-11" d="M1266.54,5478.88a25.32,25.32,0,0,1,2.49-6.29l-3.43-5.25,7.22-7.46,5.35,3.26a25.27,25.27,0,0,1,6.21-2.69l1.29-6.14,10.37-.17,1.49,6.09a25.63,25.63,0,0,1,6.29,2.49l5.25-3.43,7.45,7.22-3.25,5.36a26,26,0,0,1,2.69,6.2l6.14,1.29.16,10.38-6.09,1.48a25.09,25.09,0,0,1-2.49,6.29l3.44,5.25-7.22,7.46-5.36-3.26a25.49,25.49,0,0,1-6.21,2.69l-1.28,6.14-10.38.17-1.48-6.09a25.71,25.71,0,0,1-6.29-2.49l-5.25,3.43-7.46-7.22,3.26-5.36a25.2,25.2,0,0,1-2.69-6.2l-6.14-1.29-.17-10.38,6.09-1.48Zm13.68,5.88a11.13,11.13,0,1,0,11-11.31A11.13,11.13,0,0,0,1280.22,5484.76Z"/></g></g><g id="Android"><path class="cls-5" d="M348.35,5422.91s3.93,32.62,26.24,33.57c25.83,1.1,27.08-33.57,27.08-33.57Z"/><path class="cls-5" d="M351.58,5435.62s-11.63,3-7.92,12.84L364,5465.39a15.34,15.34,0,0,0,7.76-11.11l-19.6-17.59"/><path class="cls-6" d="M348.35,5422.91s26.76,25.63,53.32,0Z"/><path class="cls-12" d="M379.52,5337.71a.28.28,0,1,1-.56,0,.28.28,0,1,1,.56,0Z"/><rect class="cls-5" x="364.41" y="5313.17" width="23.9" height="22.1"/><path class="cls-13" d="M381.1,5325.15s12.25-.28,14-12.27c.83-5.79,1.58-17.84,2.13-28.76.6-11.75-7.08-23.72-20.75-23.67h0c-12.58-.91-20.39,9.27-20.95,21.87,0,0,.92,25.46,3,31.3s8.7,12.41,19.62,11.58"/><rect class="cls-5" x="358.57" y="5285.2" width="35.61" height="11.09" rx="4.84" ry="4.84"/><path class="cls-12" d="M388.32,5290.67a1.76,1.76,0,0,1-1.68,1.79,1.67,1.67,0,0,1-1.77-1.64,1.75,1.75,0,0,1,1.68-1.8A1.7,1.7,0,0,1,388.32,5290.67Z"/><path class="cls-5" d="M355.58,5292.87c0,4-.74,7.21-1.65,7.21s-1.65-3.23-1.65-7.21.74-7.22,1.65-7.22S355.58,5288.88,355.58,5292.87Z"/><path class="cls-5" d="M357.12,5292.87c0,4-.81,7.21-1.81,7.21H354c-.74-.89-.47-3.95-.47-7.21s-.41-6.27.33-7.19c.17-.21,1.28,0,1.47,0C356.31,5285.65,357.12,5288.88,357.12,5292.87Z"/><path class="cls-5" d="M396.76,5292.43c0-4,.74-7.22,1.65-7.22s1.65,3.23,1.65,7.22-.74,7.21-1.65,7.21S396.76,5296.41,396.76,5292.43Z"/><path class="cls-5" d="M395.22,5292.43c0-4,.81-7.22,1.81-7.22h1.33c.74.9.47,4,.47,7.22s.4,6.27-.33,7.19c-.17.21-1.29,0-1.47,0C396,5299.64,395.22,5296.41,395.22,5292.43Z"/><g class="cls-14"><path d="M396.34,5299.11c0,.61-.59,8.23-1.12,12.71-.47,4-1.68,7.21-4.75,9.75a15.1,15.1,0,0,1-8.82,3.7c-3.95.35-8,.46-11.72-.81s-7.68-3.82-9.58-7.31c0,0,16.88,9,28.2,1.39,0,0,4.15-2,5.63-10.61C395.59,5299.72,396.34,5299.11,396.34,5299.11Z"/></g><path class="cls-12" d="M388.49,5297.85a9,9,0,0,1,.91-.13,6.71,6.71,0,0,0,5.09-3.94,6.52,6.52,0,0,0,.53-2.47,7.08,7.08,0,0,0-.44-2.8,6.57,6.57,0,0,0-4.77-4,22.09,22.09,0,0,0-3.68-.12h-4l-17.68,0a6.44,6.44,0,0,0-6.3,5.09,7.16,7.16,0,0,0,.35,4.11,6.52,6.52,0,0,0,2.55,3,6.61,6.61,0,0,0,3.64,1l3.75,0,6.72,0,9.73.09,2.65.06a.46.46,0,1,1,0,.12l-2.65.05-9.73.09-6.72,0h-3.75a7,7,0,0,1-3.92-1,7.13,7.13,0,0,1-2.79-3.24,7.82,7.82,0,0,1-.39-4.45,7,7,0,0,1,6.86-5.55l17.68,0h4a23.76,23.76,0,0,1,3.78.16,7,7,0,0,1,5,4.35,7.48,7.48,0,0,1-.17,5.54A6.86,6.86,0,0,1,392,5297a6.37,6.37,0,0,1-2.53.82A4.1,4.1,0,0,1,388.49,5297.85Z"/><path class="cls-12" d="M376.46,5260.45a18.6,18.6,0,0,1,.26,3.46c.08,2.14.15,5.1.19,8.37s0,6.23,0,8.37a19.92,19.92,0,0,1-.16,3.47,20.58,20.58,0,0,1-.25-3.47c-.08-2.14-.15-5.09-.2-8.36s0-6.22,0-8.36A21.56,21.56,0,0,1,376.46,5260.45Z"/><path class="cls-12" d="M377,5325.5c-.16,0-.29-6.09-.29-13.61s.13-13.62.29-13.62.29,6.1.29,13.62S377.16,5325.5,377,5325.5Z"/><path class="cls-12" d="M378.6,5268.84a.28.28,0,0,1-.28.29.29.29,0,0,1,0-.57A.28.28,0,0,1,378.6,5268.84Z"/><path class="cls-12" d="M379.8,5310.63a.28.28,0,0,1-.28.28.29.29,0,0,1-.28-.28.28.28,0,0,1,.28-.28A.27.27,0,0,1,379.8,5310.63Z"/><path class="cls-12" d="M378.88,5274.32a.27.27,0,0,1-.28.28.28.28,0,0,1-.28-.28.29.29,0,0,1,.28-.28A.28.28,0,0,1,378.88,5274.32Z"/><path class="cls-12" d="M379.8,5301.84a.28.28,0,0,1-.28.28.29.29,0,0,1,0-.57A.28.28,0,0,1,379.8,5301.84Z"/><path class="cls-6" d="M398.48,5299.55a5.26,5.26,0,0,1-.93-1.88,15.7,15.7,0,0,1-.88-5,15.92,15.92,0,0,1,.73-5,5.48,5.48,0,0,1,.88-1.91c.18.05-1.11,3-1,6.92A28.71,28.71,0,0,0,398.48,5299.55Z"/><path class="cls-6" d="M353.58,5300.68c-.09-.06.41-.82.86-2.19a19.35,19.35,0,0,0,.83-5.55c0-1.11,0-2.17,0-3.13a11.24,11.24,0,0,0-.19-2.49,2,2,0,0,0-.94-1.25c-.33-.18-.57-.16-.57-.21s.23-.13.66,0a2.08,2.08,0,0,1,1.24,1.33,9.7,9.7,0,0,1,.34,2.6c.06,1,.09,2,.07,3.16a16,16,0,0,1-1,5.68A5.37,5.37,0,0,1,353.58,5300.68Z"/><path class="cls-12" d="M368.66,5292c-.09,0,0-.45-.25-1a2,2,0,0,0-1.82-1.27,2,2,0,0,0-1.86,1.22c-.25.59-.19,1-.28,1s-.3-.42-.11-1.16a2.23,2.23,0,0,1,2.25-1.67,2.26,2.26,0,0,1,1.54.59,2.32,2.32,0,0,1,.67,1.14C369,5291.54,368.72,5292,368.66,5292Z"/><path class="cls-6" d="M388.27,5331.4c0,.17-5.31.3-11.86.3s-11.86-.13-11.86-.3,5.31-.29,11.86-.29S388.27,5331.24,388.27,5331.4Z"/><path class="cls-6" d="M388.27,5328.53c0,.16-5.31.29-11.86.29s-11.86-.13-11.86-.29,5.31-.29,11.86-.29S388.27,5328.37,388.27,5328.53Z"/><path class="cls-13" d="M374.59,5334.13s-34.11,1.44-39.51,14.66-3,62.14,15.65,66.11c11.75,2.5,31.36,1.84,44.23,1a18.08,18.08,0,0,0,16.38-13.55c3.93-15.29,8.73-40.93,1.64-55.56C405.26,5338.55,392.34,5334.42,374.59,5334.13Z"/><rect class="cls-5" x="344.63" y="5352.61" width="60.76" height="31.85" rx="15.62" ry="15.62"/><path class="cls-12" d="M380.08,5395.21a.28.28,0,0,1-.28.28.29.29,0,0,1-.28-.28.28.28,0,0,1,.28-.28A.27.27,0,0,1,380.08,5395.21Z"/><path class="cls-12" d="M385.85,5390.69a.28.28,0,0,1-.28.28.27.27,0,0,1-.28-.28.28.28,0,0,1,.28-.28A.29.29,0,0,1,385.85,5390.69Z"/><path class="cls-12" d="M397.29,5390.13a.27.27,0,0,1-.28.28.28.28,0,0,1-.28-.28.29.29,0,0,1,.28-.28A.28.28,0,0,1,397.29,5390.13Z"/><path class="cls-12" d="M405.67,5385.58a.27.27,0,0,1-.28.28.28.28,0,0,1-.28-.28.29.29,0,0,1,.28-.28A.28.28,0,0,1,405.67,5385.58Z"/><path class="cls-12" d="M410.89,5378.24a.28.28,0,0,1-.28.28.27.27,0,0,1-.28-.28.28.28,0,0,1,.28-.28A.29.29,0,0,1,410.89,5378.24Z"/><path class="cls-12" d="M412.78,5370.39a.27.27,0,0,1-.28.28.28.28,0,0,1-.28-.28.29.29,0,0,1,.28-.28A.28.28,0,0,1,412.78,5370.39Z"/><path class="cls-12" d="M411.93,5362.79a.27.27,0,0,1-.28.28.28.28,0,0,1-.28-.28.29.29,0,0,1,.28-.28A.28.28,0,0,1,411.93,5362.79Z"/><path class="cls-12" d="M408.43,5355.26a.29.29,0,0,1-.28.28.28.28,0,0,1-.28-.28.27.27,0,0,1,.28-.28A.28.28,0,0,1,408.43,5355.26Z"/><path class="cls-12" d="M403.42,5350.5a.29.29,0,0,1-.57,0,.29.29,0,0,1,.57,0Z"/><path class="cls-12" d="M396.23,5347.5a.29.29,0,1,1-.29-.29A.29.29,0,0,1,396.23,5347.5Z"/><path class="cls-12" d="M387.14,5347.21a.29.29,0,0,1-.28.29.29.29,0,0,1,0-.57A.29.29,0,0,1,387.14,5347.21Z"/><path class="cls-12" d="M378.53,5347.5a.28.28,0,0,1-.28.28.29.29,0,0,1,0-.57A.28.28,0,0,1,378.53,5347.5Z"/><path class="cls-12" d="M368.48,5346.93a.29.29,0,0,1-.57,0,.29.29,0,0,1,.57,0Z"/><path class="cls-12" d="M359,5346.93a.28.28,0,0,1-.28.28.27.27,0,0,1-.28-.28.28.28,0,0,1,.28-.28A.29.29,0,0,1,359,5346.93Z"/><path class="cls-12" d="M349.38,5349.35a.29.29,0,0,1-.57,0,.29.29,0,0,1,.57,0Z"/><path class="cls-12" d="M340.94,5355.54a.29.29,0,0,1-.28.28.28.28,0,0,1-.28-.28.27.27,0,0,1,.28-.28A.28.28,0,0,1,340.94,5355.54Z"/><path class="cls-12" d="M337.13,5365.24a.28.28,0,0,1-.28.28.29.29,0,0,1-.28-.28.28.28,0,0,1,.28-.28A.27.27,0,0,1,337.13,5365.24Z"/><path class="cls-12" d="M338,5375.08a.28.28,0,0,1-.28.28.27.27,0,0,1-.28-.28.28.28,0,0,1,.28-.28A.29.29,0,0,1,338,5375.08Z"/><path class="cls-12" d="M342.59,5383a.29.29,0,0,1-.57,0,.29.29,0,0,1,.57,0Z"/><path class="cls-12" d="M350.71,5389.85a.28.28,0,0,1-.28.28.27.27,0,0,1-.28-.28.28.28,0,0,1,.28-.28A.29.29,0,0,1,350.71,5389.85Z"/><path class="cls-12" d="M361.82,5390.13a.28.28,0,0,1-.28.28.27.27,0,0,1-.28-.28.28.28,0,0,1,.28-.28A.29.29,0,0,1,361.82,5390.13Z"/><path class="cls-12" d="M372.47,5390.41a.28.28,0,0,1-.56,0,.28.28,0,0,1,.56,0Z"/><path class="cls-12" d="M379.8,5405.28a.28.28,0,0,1-.28.29.29.29,0,0,1,0-.57A.28.28,0,0,1,379.8,5405.28Z"/><path class="cls-12" d="M375.27,5363.84v10.48h-2.43V5370h-4.76v4.29h-2.42v-10.48h2.42V5368h4.76v-4.14Z"/><path class="cls-12" d="M377.31,5363.84a1.34,1.34,0,0,1,1.45-1.3,1.32,1.32,0,0,1,1.46,1.26,1.46,1.46,0,0,1-2.91,0Zm.29,2.43h2.33v8H377.6Z"/><path class="cls-12" d="M381.76,5373.08a1.44,1.44,0,0,1,2.88,0,1.44,1.44,0,0,1-2.88,0Zm.05-9.24h2.78l-.46,6.85h-1.86Z"/><path class="cls-12" d="M375.93,5349.63a100.65,100.65,0,0,1,0-15.27,100.65,100.65,0,0,1,0,15.27Z"/><path class="cls-12" d="M376.27,5415.42c-.16,0-.29-6.27-.29-14s.13-14,.29-14,.29,6.26.29,14S376.43,5415.42,376.27,5415.42Z"/><path class="cls-12" d="M390.55,5387.44a20.78,20.78,0,0,0,6.87-1.45,18.11,18.11,0,0,0,6.67-4.7,18.27,18.27,0,0,0,4.57-9.69,19.42,19.42,0,0,0-2.36-12.69,18.4,18.4,0,0,0-11.88-8.58c-2.58-.62-5.36-.36-8.18-.41H359.47a18.21,18.21,0,0,0-15.15,8.07,18.65,18.65,0,0,0-2.94,7.88,21,21,0,0,0,.55,8.09,18.29,18.29,0,0,0,9.35,11.28,18.55,18.55,0,0,0,6.54,1.88l1.63.09h4.74l19.29.1,5.25.05,1.36,0a.23.23,0,1,1,0,.06l-1.36,0-5.25.05-19.29.1h-4.74l-1.67-.08a18.8,18.8,0,0,1-16.37-13.46,21.58,21.58,0,0,1-.59-8.31,19.23,19.23,0,0,1,3-8.13,18.77,18.77,0,0,1,15.62-8.33h30.95l2.08.1c.68.11,1.37.19,2,.33a18.89,18.89,0,0,1,12.18,8.86,19.85,19.85,0,0,1,2.35,13,18.56,18.56,0,0,1-4.74,9.85,18.18,18.18,0,0,1-6.83,4.69,19.1,19.1,0,0,1-5.11,1.21l-1.37,0A3.36,3.36,0,0,1,390.55,5387.44Z"/><g class="cls-14"><path d="M336.6,5397.15c10.56,8.58,23.2,17,37.16,17.28A55.36,55.36,0,0,0,412,5399.92s-1.89,13.69-15.05,15.75c-8.4,1.31-22.63,1.27-32.54.78-5.59-.28-9.8-.92-10.84-1-3.47-.38-9.68-1.52-13.52-9.94-.58-1.28-1.25-2.32-1.65-3.23C336.2,5397.27,336.6,5397.15,336.6,5397.15Z"/></g><rect class="cls-5" x="348.35" y="5415.3" width="53.32" height="2.92" rx="1.28" ry="1.28"/><path class="cls-6" d="M373.7,5456.21a4.77,4.77,0,0,1-1.25-.18,23.78,23.78,0,0,1-3.28-.94A28,28,0,0,1,353.09,5440a23.7,23.7,0,0,1-1.16-3.22,4.43,4.43,0,0,1-.25-1.23c.1,0,.55,1.7,1.78,4.28a29.78,29.78,0,0,0,15.86,14.87C372,5455.77,373.72,5456.11,373.7,5456.21Z"/><path class="cls-5" d="M400.44,5435.65s11.63,3,7.91,12.84L388,5465.42a15.34,15.34,0,0,1-7.76-11.11l19.6-17.58"/><path class="cls-6" d="M378.32,5456.24c0-.1,1.73-.44,4.38-1.51a29.71,29.71,0,0,0,15.85-14.87c1.24-2.58,1.69-4.31,1.79-4.27a4.86,4.86,0,0,1-.25,1.22,23.23,23.23,0,0,1-1.16,3.22,28.1,28.1,0,0,1-16.08,15.09,24.15,24.15,0,0,1-3.29.95A4.39,4.39,0,0,1,378.32,5456.24Z"/><path class="cls-6" d="M376.45,5456.5c-.17,0-.3-4.87-.3-10.88s.13-10.88.3-10.88a204.24,204.24,0,0,1,0,21.76Z"/><path class="cls-13" d="M345.85,5538l-8.82,8s-1,29.06,10.08,56,18.37,34.89,18.37,34.89l8.35-.54-6.32-97.2-9.15-2Z"/><g class="cls-14"><polygon points="354.75 5537.45 368.48 5633.85 373.89 5634.49 367.51 5539.13 358.36 5537.14 354.75 5537.45"/></g><path class="cls-12" d="M368.48,5633.85c-.16,0-3.33-21.53-7.08-48.14s-6.66-48.21-6.5-48.23,3.33,21.53,7.08,48.15S368.64,5633.83,368.48,5633.85Z"/><path class="cls-12" d="M361.72,5562.22a.29.29,0,0,1-.57,0,.29.29,0,0,1,.57,0Z"/><path class="cls-12" d="M364.88,5585.9a.29.29,0,0,1-.26.3.28.28,0,0,1-.3-.26.27.27,0,0,1,.26-.3A.28.28,0,0,1,364.88,5585.9Z"/><path class="cls-12" d="M368.16,5613.12a.28.28,0,0,1-.56,0,.29.29,0,0,1,.26-.3A.28.28,0,0,1,368.16,5613.12Z"/><path class="cls-12" d="M358,5542.84a.29.29,0,1,1-.57,0,.29.29,0,0,1,.57,0Z"/><path class="cls-13" d="M343.66,5448.46h-8.12s-10.16,50.79,8.12,73.82h14.23s6.09-11.51,6.09-17.61v-39.28Z"/><g class="cls-14"><path d="M338.1,5512.58l15.54-6.13v-49.67l10.34,8.61-.11,39.21a16.85,16.85,0,0,1-.42,3.81,48.24,48.24,0,0,1-5.56,13.87H343.66A40,40,0,0,1,338.1,5512.58Z"/></g><path class="cls-12" d="M353.64,5456.78a2.94,2.94,0,0,1,.06.67c0,.51,0,1.15.06,1.94,0,1.75.05,4.16.09,7.11,0,6.08,0,14.34.09,23.47,0,6,0,11.67,0,16.48v.18l-.16.06L342.43,5511l-3.19,1.18a6.86,6.86,0,0,1-1.14.37,6.63,6.63,0,0,1,1.09-.51l3.13-1.32,11.23-4.53-.16.23c0-4.81,0-10.46,0-16.48,0-9.13.06-17.39.09-23.47,0-2.95.07-5.36.09-7.11,0-.79,0-1.43.05-1.94A2.94,2.94,0,0,1,353.64,5456.78Z"/><path class="cls-12" d="M356.24,5494.75a.27.27,0,0,1-.28.28.28.28,0,0,1-.28-.28.29.29,0,0,1,.28-.28A.28.28,0,0,1,356.24,5494.75Z"/><path class="cls-12" d="M347.53,5513.28a.29.29,0,0,1-.28.28.28.28,0,0,1-.28-.28.27.27,0,0,1,.28-.28A.28.28,0,0,1,347.53,5513.28Z"/><path class="cls-12" d="M356.24,5479.14a.28.28,0,0,1-.28.28.29.29,0,0,1,0-.57A.28.28,0,0,1,356.24,5479.14Z"/><path class="cls-12" d="M356.24,5463.52a.28.28,0,0,1-.28.28.29.29,0,0,1-.28-.28.28.28,0,0,1,.28-.28A.27.27,0,0,1,356.24,5463.52Z"/><rect class="cls-5" x="340.18" y="5521.89" width="21.71" height="15.68" rx="6.84" ry="6.84"/><path class="cls-6" d="M349.22,5537.5s-.24,0-.61-.16a3.19,3.19,0,0,1-1.24-1.23,11.55,11.55,0,0,1-1.17-5.48,16.9,16.9,0,0,1,.85-5.53,6.06,6.06,0,0,1,1-2.1c.18.05-1.33,3.32-1.26,7.62a13.14,13.14,0,0,0,1,5.29A4.15,4.15,0,0,0,349.22,5537.5Z"/><path class="cls-5" d="M378.68,5651.74c0-2.35,0-8.91-.68-11.18a9.11,9.11,0,0,0-4-5.59,11.6,11.6,0,0,0-10.5.53c-2.35,1.63-3.42,4.65-3.43,7.51l-.48,8.73"/><path class="cls-13" d="M378.37,5648.87l-20.41-.19s-15.08,3.1-14.78,4.32,35.69.47,35.69.47Z"/><path class="cls-6" d="M360.15,5642.64a9,9,0,0,0,2.57,1,29.54,29.54,0,0,0,13.18.63,9.17,9.17,0,0,0,2.65-.73c0-.2-4.13.81-9.25.54S360.2,5642.45,360.15,5642.64Z"/><path class="cls-13" d="M405.93,5536.07l9.31,7.38s2.89,28.89-6.42,56.49-16,36-16,36h-8.35v-97.25l9-2.57Z"/><g class="cls-14"><polygon points="397.24 5536.54 389.79 5633.63 384.43 5634.62 384.62 5539.04 393.62 5536.47 397.24 5536.54"/></g><path class="cls-12" d="M389.87,5633.63c-.16,0,1.34-21.75,3.36-48.55s3.78-48.51,3.94-48.5-1.34,21.74-3.36,48.55S390,5633.64,389.87,5633.63Z"/><path class="cls-12" d="M391.79,5561.81a.52.52,0,0,0,.52.53.53.53,0,0,0,.53-.53.52.52,0,0,0-.53-.52A.52.52,0,0,0,391.79,5561.81Z"/><path class="cls-12" d="M389.68,5586a.53.53,0,0,0,.53.53.52.52,0,0,0,.52-.53.52.52,0,0,0-.52-.52A.52.52,0,0,0,389.68,5586Z"/><path class="cls-12" d="M388.63,5613.3a.53.53,0,0,0,.53.53.52.52,0,0,0,.52-.53.52.52,0,0,0-.52-.52A.52.52,0,0,0,388.63,5613.3Z"/><path class="cls-12" d="M393.89,5541.85a.52.52,0,0,0,.52.53.53.53,0,0,0,.53-.53.52.52,0,0,0-.53-.52A.52.52,0,0,0,393.89,5541.85Z"/><path class="cls-13" d="M407.83,5447.81h8.09s10.13,50.61-8.09,73.55H393.66s-6.08-11.47-6.08-17.54v-39.14Z"/><g class="cls-14"><path d="M413.89,5511.66l-15.8-6.13v-49.67l-10.51,8.61.11,39.18a17.39,17.39,0,0,0,.43,3.87,47.87,47.87,0,0,0,5.66,13.84h14.46A39.85,39.85,0,0,0,413.89,5511.66Z"/></g><path class="cls-12" d="M398.09,5456.21a3.1,3.1,0,0,1,.06.68c0,.51,0,1.15.05,1.94,0,1.75.06,4.17.1,7.11,0,6.08.05,14.35.08,23.49,0,6,0,11.69,0,16.51l-.16-.24,11.23,4.54,3.14,1.31a6.06,6.06,0,0,1,1.09.52,8.68,8.68,0,0,1-1.15-.37l-3.19-1.18-11.3-4.34-.16-.07v-.17c0-4.82,0-10.48,0-16.51,0-9.14.06-17.41.08-23.49,0-2.94.07-5.36.1-7.11,0-.79,0-1.43,0-1.94A3.1,3.1,0,0,1,398.09,5456.21Z"/><path class="cls-12" d="M394.94,5494.57a.52.52,0,0,0,.52.52.52.52,0,0,0,.53-.52.53.53,0,0,0-.53-.53A.52.52,0,0,0,394.94,5494.57Z"/><path class="cls-12" d="M403.34,5512.43a.53.53,0,0,0,.53.53.53.53,0,0,0,0-1.06A.53.53,0,0,0,403.34,5512.43Z"/><path class="cls-12" d="M394.94,5478.81a.52.52,0,0,0,.52.52.52.52,0,0,0,.53-.52.53.53,0,0,0-.53-.53A.52.52,0,0,0,394.94,5478.81Z"/><path class="cls-12" d="M394.94,5463a.52.52,0,0,0,.52.53.53.53,0,0,0,.53-.53.52.52,0,0,0-.53-.52A.52.52,0,0,0,394.94,5463Z"/><rect class="cls-5" x="389.68" y="5520.31" width="22.07" height="15.76" rx="6.88" ry="6.88" transform="translate(801.43 11056.38) rotate(180)"/><path class="cls-6" d="M402.15,5536.47a4.05,4.05,0,0,0,1.5-1.59,13.16,13.16,0,0,0,.94-5.29c.08-4.3-1.43-7.57-1.25-7.62a6,6,0,0,1,1,2.09,16.7,16.7,0,0,1,.86,5.53,11.56,11.56,0,0,1-1.17,5.49,3.25,3.25,0,0,1-1.24,1.23C402.4,5536.49,402.16,5536.5,402.15,5536.47Z"/><path class="cls-5" d="M377.67,5651.6c0-2.36,0-8.92.69-11.19a9.1,9.1,0,0,1,4-5.59,11.6,11.6,0,0,1,10.5.53c2.35,1.64,3.43,4.65,3.44,7.51l.48,8.74"/><path class="cls-13" d="M378,5648.71l20.41-.19s15.08,3.1,14.78,4.31-35.7.47-35.7.47Z"/><path class="cls-6" d="M398.32,5642.29a9,9,0,0,1-2.57,1,29.54,29.54,0,0,1-13.18.63,9.74,9.74,0,0,1-2.65-.73c0-.2,4.13.81,9.25.54S398.27,5642.1,398.32,5642.29Z"/><path class="cls-5" d="M338.82,5343.94s-12.55-.93-14.13,11.64,9.79,12.53,9.79,12.53Z"/><polygon class="cls-13" points="288.28 5390.09 302.53 5399.31 328.48 5372.61 330.62 5341.47 316.37 5348.18 316.37 5348.18 288.28 5390.09"/><g class="cls-14"><polygon points="328.48 5372.61 302.53 5399.31 296.62 5395.49 329.39 5359.31 328.48 5372.61"/></g><path class="cls-12" d="M329.16,5359.42c.12.11-6.2,7.27-14.1,16s-14.42,15.72-14.54,15.61,6.19-7.27,14.1-16S329,5359.31,329.16,5359.42Z"/><path class="cls-12" d="M307.26,5388.74a.29.29,0,0,1-.57,0,.29.29,0,0,1,.57,0Z"/><path class="cls-12" d="M314.84,5380.16a.29.29,0,0,1-.28.28.28.28,0,0,1-.28-.28.27.27,0,0,1,.28-.28A.28.28,0,0,1,314.84,5380.16Z"/><path class="cls-12" d="M322.42,5371.58a.28.28,0,0,1-.28.28.28.28,0,1,1,0-.56A.28.28,0,0,1,322.42,5371.58Z"/><circle class="cls-5" cx="293.21" cy="5400.41" r="11.67"/><polygon class="cls-13" points="304.44 5401.43 335.17 5439.6 329.72 5446.72 283.06 5415.58 283.06 5415.58 281.15 5399.79 304.44 5401.43"/><g class="cls-14"><polygon points="324.54 5443.27 325.47 5434.3 297.18 5400.92 304.44 5401.43 335.17 5439.6 329.72 5446.72 324.54 5443.27"/></g><path class="cls-12" d="M324.54,5443.27a2.33,2.33,0,0,1,0-.63c0-.48.07-1.08.12-1.79.15-1.65.34-3.87.58-6.57l.05.16L314,5421.24c-4.71-5.56-9-10.62-12-14.29l-3.59-4.38-.95-1.21c-.21-.28-.32-.43-.3-.44s.15.11.39.37l1,1.14,3.72,4.25c3.13,3.61,7.42,8.62,12.13,14.18l11.18,13.3.06.07v.09c-.32,2.69-.58,4.91-.77,6.55-.1.71-.18,1.3-.25,1.78A1.89,1.89,0,0,1,324.54,5443.27Z"/><path class="cls-12" d="M317.42,5421.81a.28.28,0,0,1-.28.28.27.27,0,0,1-.28-.28.28.28,0,0,1,.28-.28A.29.29,0,0,1,317.42,5421.81Z"/><path class="cls-12" d="M324.87,5430.06a.29.29,0,0,1-.28.28.28.28,0,0,1-.28-.28.27.27,0,0,1,.28-.28A.28.28,0,0,1,324.87,5430.06Z"/><path class="cls-12" d="M311,5414a.28.28,0,0,1-.28.28.29.29,0,0,1-.28-.28.28.28,0,0,1,.28-.28A.27.27,0,0,1,311,5414Z"/><path class="cls-12" d="M304.62,5407a.29.29,0,0,1-.28.28.29.29,0,0,1,0-.57A.29.29,0,0,1,304.62,5407Z"/><polygon class="cls-13" points="468.33 5330.81 472.76 5347.2 439.41 5363.75 425.7 5360.37 419.84 5344.76 419.84 5344.76 468.33 5330.81"/><g class="cls-14"><polygon points="439.41 5363.75 472.76 5347.2 470.92 5340.4 426.46 5360.56 439.41 5363.75"/></g><path class="cls-12" d="M426.64,5360.37c-.06-.15,8.58-4.21,19.3-9.07s19.48-8.7,19.55-8.55-8.58,4.21-19.31,9.08S426.71,5360.52,426.64,5360.37Z"/><path class="cls-12" d="M461.25,5348.47a.29.29,0,0,0,.35-.18.28.28,0,0,0-.18-.36.29.29,0,0,0-.36.18A.3.3,0,0,0,461.25,5348.47Z"/><path class="cls-12" d="M450.76,5353.07a.29.29,0,0,0,.36-.18.3.3,0,0,0-.19-.36.29.29,0,0,0-.35.18A.28.28,0,0,0,450.76,5353.07Z"/><path class="cls-12" d="M440.28,5357.67a.27.27,0,0,0,.35-.18.28.28,0,1,0-.53-.17A.28.28,0,0,0,440.28,5357.67Z"/><path class="cls-5" d="M411.37,5345.38s12.55-.93,14.13,11.64-9.79,12.53-9.79,12.53Z"/><circle class="cls-5" cx="476.65" cy="5338.66" r="11.67" transform="translate(-2441.35 842.69) rotate(-27.88)"/><polygon class="cls-13" points="489.39 5326.41 488.56 5277.41 479.81 5275.43 463.9 5329.23 463.9 5329.23 484.22 5331.21 489.39 5326.41"/><g class="cls-14"><polygon points="478.05 5281.4 484.5 5287.69 484.14 5331.45 489.39 5326.41 488.56 5277.41 479.81 5275.43 478.05 5281.4"/></g><path class="cls-12" d="M478.05,5281.4a2.47,2.47,0,0,1,.49.39l1.33,1.21,4.78,4.54.07.06v.1c0,4.64,0,10.71-.07,17.37-.06,7.28-.15,13.88-.24,18.65l-.14,5.66c0,.61,0,1.12-.07,1.54a1.84,1.84,0,0,1-.06.53,1.88,1.88,0,0,1-.06-.54c0-.41,0-.92,0-1.53,0-1.43,0-3.34-.05-5.66,0-4.77,0-11.37.07-18.66.09-6.65.16-12.72.22-17.37l.07.16-4.65-4.67-1.25-1.3A2.2,2.2,0,0,1,478.05,5281.4Z"/><path class="cls-12" d="M486.31,5302.44a.28.28,0,1,0,0,.4A.29.29,0,0,0,486.31,5302.44Z"/><path class="cls-12" d="M486.18,5291.25a.27.27,0,0,1,.38.11.28.28,0,0,1-.12.38.29.29,0,0,1-.38-.11A.28.28,0,0,1,486.18,5291.25Z"/><path class="cls-12" d="M486.4,5312.51a.28.28,0,0,0-.43.36.28.28,0,1,0,.43-.36Z"/><path class="cls-5" d="M334.7,5434.58l3.55.65,3,3.2-1.19,2.38,2,6.1s.15,1.92-1.22,2.26l-1.37.33s.29,1.63-1.82,2.33l-3,1s-1.07,1.59-2.11.7-1.78-.52-1.78-.52-1.55.89-2.33.41-4.37-8.33-4.37-8.33l-1.55-1.27,8.92-10L333,5435Z"/><rect class="cls-5" x="318.95" y="5437.31" width="16.1" height="3.07" rx="1.34" ry="1.34" transform="translate(-3750.07 1824.23) rotate(-45)"/><path class="cls-6" d="M332.86,5435.21a76.47,76.47,0,0,1-9.53,9.4,39.72,39.72,0,0,1,4.56-4.91A38,38,0,0,1,332.86,5435.21Z"/><path class="cls-5" d="M490.29,5277.09l1.41-8.85,2.67-8.64s.68-2.2-.73-2.21-4.77,6.73-4.77,6.73,2.52-7.89,2.24-9.49-1.06-1.6-2.07-.64-3.36,6.72-3.36,6.72.85-7.74,0-8.53-1.67-.76-2.08.1-1.32,7.81-1.44,8.19-1.11-6.57-2.19-6.76-2-.36-1.86,2-.34,9.16-.34,9.16-2-5.2-3.33-5.62c-1.66-.51-1.86.3-1,3.2,1,3.47.84,4.27.84,4.27s1.45,5.36,2,9.41Z"/><path class="cls-6" d="M477.73,5267.32c0,.05.45-.07,1.17-.09a5.15,5.15,0,0,1,4.61,2.6c.36.62.48,1.06.53,1.05a2.3,2.3,0,0,0-.32-1.16,4.93,4.93,0,0,0-2-2.12,5,5,0,0,0-2.84-.61A2.25,2.25,0,0,0,477.73,5267.32Z"/><path class="cls-6" d="M485.35,5270.75c.07.06.74-.59,1.68-1.23s1.79-1,1.75-1.12a4,4,0,0,0-1.94.84A3.89,3.89,0,0,0,485.35,5270.75Z"/><rect class="cls-5" x="475.11" y="5275.56" width="16.11" height="3.07" rx="1.34" ry="1.34" transform="translate(966.33 10554.19) rotate(180)"/><path class="cls-6" d="M476.46,5275.53a76,76,0,0,1,13.38.09,76,76,0,0,1-13.38-.09Z"/><path class="cls-5" d="M595.17,5446.27s3.49,29,23.36,29.89c23,1,24.12-29.89,24.12-29.89Z"/><path class="cls-5" d="M598,5457.58s-10.35,2.67-7,11.44l18.1,15.08a13.7,13.7,0,0,0,6.9-9.9l-17.45-15.66"/><path class="cls-6" d="M595.17,5446.27s23.82,22.82,47.48,0Z"/><path class="cls-12" d="M622.92,5370.4a.25.25,0,0,1-.25.25.25.25,0,0,1,0-.5A.25.25,0,0,1,622.92,5370.4Z"/><rect class="cls-5" x="609.47" y="5348.55" width="21.29" height="19.68"/><path class="cls-15" d="M624.33,5359.21s10.91-.25,12.45-10.92c.74-5.16,1.41-15.89,1.9-25.62.53-10.46-6.31-21.12-18.48-21.07h0c-11.2-.82-18.16,8.25-18.66,19.47,0,0,.82,22.68,2.71,27.87s7.75,11.05,17.47,10.31"/><rect class="cls-5" x="604.27" y="5323.63" width="31.71" height="9.87" rx="4.84" ry="4.84"/><path class="cls-12" d="M630.76,5328.5a1.57,1.57,0,0,1-1.5,1.6,1.5,1.5,0,0,1-1.58-1.46,1.57,1.57,0,0,1,1.5-1.6A1.5,1.5,0,0,1,630.76,5328.5Z"/><path class="cls-5" d="M601.6,5330.47c0,3.54-.65,6.42-1.46,6.42s-1.47-2.88-1.47-6.42.65-6.43,1.47-6.43S601.6,5326.92,601.6,5330.47Z"/><path class="cls-5" d="M603,5330.47c0,3.54-.72,6.42-1.6,6.42h-1.19c-.66-.8-.42-3.52-.42-6.42s-.36-5.59.29-6.4c.15-.19,1.15,0,1.32,0C602.25,5324,603,5326.92,603,5330.47Z"/><path class="cls-5" d="M638.27,5330.07c0-3.55.66-6.42,1.47-6.42s1.47,2.87,1.47,6.42-.66,6.43-1.47,6.43S638.27,5333.62,638.27,5330.07Z"/><path class="cls-5" d="M636.91,5330.07c0-3.55.72-6.42,1.6-6.42h1.19c.66.79.42,3.52.42,6.42s.36,5.59-.29,6.4c-.15.19-1.15,0-1.32,0C637.63,5336.5,636.91,5333.62,636.91,5330.07Z"/><g class="cls-14"><path d="M637.9,5336c0,.54-.53,7.33-1,11.32-.42,3.53-1.5,6.42-4.24,8.69a13.48,13.48,0,0,1-7.85,3.29c-3.52.31-7.08.41-10.43-.72s-6.84-3.41-8.53-6.51c0,0,15,8,25.11,1.23,0,0,3.69-1.75,5-9.44C637.23,5336.56,637.9,5336,637.9,5336Z"/></g><path class="cls-12" d="M630.91,5334.9s.29,0,.81-.12a5.72,5.72,0,0,0,2.17-.8,5.91,5.91,0,0,0,2.36-2.7,5.58,5.58,0,0,0,.48-2.2,6.06,6.06,0,0,0-.4-2.49,5.83,5.83,0,0,0-4.24-3.58,21.87,21.87,0,0,0-3.28-.11h-3.54l-15.74,0a5.73,5.73,0,0,0-5.61,4.54,6.41,6.41,0,0,0,.31,3.66,5.83,5.83,0,0,0,5.52,3.54h3.33l6,0,8.66.09,2.36.05a4,4,0,0,1,.82,0,5.2,5.2,0,0,1-.82.05l-2.36.05-8.66.08-6,0-3.33,0a6.36,6.36,0,0,1-3.5-.93,6.24,6.24,0,0,1-2.48-2.88,7,7,0,0,1-.35-4,6.27,6.27,0,0,1,6.11-4.95l15.74,0h3.54a21,21,0,0,1,3.37.15,6.2,6.2,0,0,1,4.49,3.86,6.64,6.64,0,0,1-.15,4.95,6.09,6.09,0,0,1-2.53,2.76,5.49,5.49,0,0,1-2.25.73A4,4,0,0,1,630.91,5334.9Z"/><path class="cls-12" d="M620.2,5301.6a16.47,16.47,0,0,1,.23,3.08c.07,1.9.13,4.54.17,7.45s0,5.55,0,7.46a18.35,18.35,0,0,1-.14,3.08,16.6,16.6,0,0,1-.23-3.08c-.07-1.91-.13-4.54-.17-7.45s0-5.54,0-7.45A18.43,18.43,0,0,1,620.2,5301.6Z"/><path class="cls-12" d="M620.68,5359.53c-.14,0-.26-5.43-.26-12.13s.12-12.12.26-12.12.26,5.42.26,12.12S620.82,5359.53,620.68,5359.53Z"/><path class="cls-12" d="M622.11,5309.07a.25.25,0,1,1-.25-.25A.25.25,0,0,1,622.11,5309.07Z"/><path class="cls-12" d="M623.18,5346.28a.26.26,0,1,1-.26-.25A.26.26,0,0,1,623.18,5346.28Z"/><path class="cls-12" d="M622.36,5314a.25.25,0,1,1-.25-.25A.25.25,0,0,1,622.36,5314Z"/><path class="cls-12" d="M623.18,5338.45a.26.26,0,1,1-.26-.25A.26.26,0,0,1,623.18,5338.45Z"/><path class="cls-6" d="M639.8,5336.41a4.85,4.85,0,0,1-.82-1.67,14,14,0,0,1-.79-4.45,14.33,14.33,0,0,1,.66-4.48,4.56,4.56,0,0,1,.78-1.69,26,26,0,0,0-.92,6.16A26.37,26.37,0,0,0,639.8,5336.41Z"/><path class="cls-6" d="M599.82,5337.42c-.07-.05.37-.73.77-1.95a17.28,17.28,0,0,0,.74-4.94c0-1,0-1.93,0-2.79a10.21,10.21,0,0,0-.17-2.22,1.8,1.8,0,0,0-.83-1.11c-.3-.16-.51-.14-.51-.19s.21-.12.59,0a1.83,1.83,0,0,1,1.1,1.17,8.64,8.64,0,0,1,.3,2.32c.05.86.09,1.82.06,2.82a14.39,14.39,0,0,1-.92,5.06A4.74,4.74,0,0,1,599.82,5337.42Z"/><path class="cls-12" d="M613.25,5329.65c-.08,0,0-.4-.22-.93a1.77,1.77,0,0,0-3.28,0c-.22.52-.17.91-.25.92s-.26-.38-.09-1a2,2,0,0,1,.62-1,2.06,2.06,0,0,1,3.35,1C613.53,5329.28,613.3,5329.68,613.25,5329.65Z"/><path class="cls-6" d="M630.71,5364.78a214.38,214.38,0,0,1-21.11,0c0-.14,4.72-.26,10.55-.26S630.71,5364.64,630.71,5364.78Z"/><path class="cls-6" d="M630.71,5362.22a214.38,214.38,0,0,1-21.11,0c0-.14,4.72-.26,10.55-.26S630.71,5362.08,630.71,5362.22Z"/><path class="cls-15" d="M618.53,5367.21s-30.38,1.28-35.18,13.06-2.65,55.33,13.93,58.86c10.47,2.23,27.93,1.65,39.39.91A16.11,16.11,0,0,0,651.26,5428c3.5-13.62,7.78-36.45,1.46-49.48C645.85,5371.14,634.34,5367.46,618.53,5367.21Z"/><rect class="cls-5" x="591.85" y="5383.67" width="54.11" height="28.37" rx="13.91" ry="13.91"/><path class="cls-12" d="M623.43,5421.6a.26.26,0,1,1-.25-.25A.25.25,0,0,1,623.43,5421.6Z"/><path class="cls-12" d="M628.56,5417.58a.25.25,0,1,1-.25-.25A.25.25,0,0,1,628.56,5417.58Z"/><path class="cls-12" d="M638.75,5417.08a.25.25,0,1,1-.25-.25A.25.25,0,0,1,638.75,5417.08Z"/><path class="cls-12" d="M646.21,5413a.25.25,0,0,1-.25.25.26.26,0,0,1-.25-.25.25.25,0,0,1,.25-.25A.25.25,0,0,1,646.21,5413Z"/><path class="cls-12" d="M650.86,5406.49a.25.25,0,1,1-.25-.25A.25.25,0,0,1,650.86,5406.49Z"/><path class="cls-12" d="M652.54,5399.5a.25.25,0,0,1-.25.25.25.25,0,0,1,0-.5A.25.25,0,0,1,652.54,5399.5Z"/><path class="cls-12" d="M651.79,5392.73a.25.25,0,0,1-.25.25.25.25,0,0,1,0-.5A.25.25,0,0,1,651.79,5392.73Z"/><path class="cls-12" d="M648.67,5386a.25.25,0,1,1-.25-.25A.25.25,0,0,1,648.67,5386Z"/><path class="cls-12" d="M644.2,5381.79a.25.25,0,0,1-.25.25.25.25,0,1,1,0-.5A.25.25,0,0,1,644.2,5381.79Z"/><path class="cls-12" d="M637.8,5379.11a.25.25,0,1,1-.25-.25A.25.25,0,0,1,637.8,5379.11Z"/><path class="cls-12" d="M629.71,5378.86a.25.25,0,1,1-.25-.25A.25.25,0,0,1,629.71,5378.86Z"/><path class="cls-12" d="M622.05,5379.11a.25.25,0,0,1-.25.25.25.25,0,0,1,0-.5A.25.25,0,0,1,622.05,5379.11Z"/><path class="cls-12" d="M613.09,5378.61a.25.25,0,1,1-.25-.25A.25.25,0,0,1,613.09,5378.61Z"/><path class="cls-12" d="M604.63,5378.61a.25.25,0,1,1-.25-.25A.25.25,0,0,1,604.63,5378.61Z"/><path class="cls-12" d="M596.08,5380.77a.25.25,0,1,1-.25-.26A.25.25,0,0,1,596.08,5380.77Z"/><path class="cls-12" d="M588.57,5386.27a.25.25,0,0,1-.25.25.25.25,0,1,1,0-.5A.25.25,0,0,1,588.57,5386.27Z"/><path class="cls-12" d="M585.18,5394.91a.25.25,0,1,1-.25-.25A.25.25,0,0,1,585.18,5394.91Z"/><path class="cls-12" d="M586,5403.68a.25.25,0,0,1-.5,0,.25.25,0,0,1,.5,0Z"/><path class="cls-12" d="M590,5410.72a.25.25,0,0,1-.25.25.25.25,0,1,1,0-.5A.25.25,0,0,1,590,5410.72Z"/><path class="cls-12" d="M597.27,5416.83a.25.25,0,0,1-.25.25.25.25,0,0,1,0-.5A.25.25,0,0,1,597.27,5416.83Z"/><path class="cls-12" d="M607.16,5417.08a.25.25,0,1,1-.25-.25A.25.25,0,0,1,607.16,5417.08Z"/><path class="cls-12" d="M616.65,5417.33a.25.25,0,0,1-.25.25.25.25,0,1,1,0-.5A.25.25,0,0,1,616.65,5417.33Z"/><path class="cls-12" d="M623.18,5430.57a.26.26,0,1,1-.26-.25A.26.26,0,0,1,623.18,5430.57Z"/><path class="cls-12" d="M619.14,5393.67V5403H617v-3.83h-4.24V5403h-2.16v-9.33h2.16v3.68H617v-3.68Z"/><path class="cls-12" d="M621,5393.67a1.18,1.18,0,0,1,1.29-1.16,1.17,1.17,0,0,1,1.3,1.12,1.3,1.3,0,0,1-2.59,0Zm.25,2.16h2.08V5403h-2.08Z"/><path class="cls-12" d="M624.92,5401.89a1.28,1.28,0,0,1,2.56,0,1.28,1.28,0,0,1-2.56,0Zm0-8.22h2.48l-.41,6.09h-1.66Z"/><path class="cls-12" d="M619.73,5381a85.76,85.76,0,0,1,0-13.6,89.05,89.05,0,0,1,0,13.6Z"/><path class="cls-12" d="M620,5439.59c-.14,0-.26-5.57-.26-12.45s.12-12.46.26-12.46.26,5.58.26,12.46S620.17,5439.59,620,5439.59Z"/><path class="cls-12" d="M632.75,5414.68a18.2,18.2,0,0,0,6.11-1.29,16.45,16.45,0,0,0,8.51-8,15.32,15.32,0,0,0,1.5-4.87,17.31,17.31,0,0,0-2.1-11.3,16.41,16.41,0,0,0-10.58-7.64c-2.3-.54-4.77-.31-7.28-.36H605.07a16.26,16.26,0,0,0-13.49,7.18,16.55,16.55,0,0,0-2.62,7,18.84,18.84,0,0,0,.49,7.2,16.34,16.34,0,0,0,14.15,11.72l1.45.07h4.22l17.18.08,4.67.05,1.22,0a2.18,2.18,0,0,1,.41,0l-.41,0-1.22,0-4.67.05-17.18.08h-4.22l-1.49-.07a16.78,16.78,0,0,1-14.57-12,19.28,19.28,0,0,1-.53-7.4,17.14,17.14,0,0,1,2.7-7.24,16.69,16.69,0,0,1,13.91-7.42h27.56l1.85.09c.61.1,1.22.17,1.82.3a16.73,16.73,0,0,1,10.84,7.88,17.65,17.65,0,0,1,2.1,11.58,16.6,16.6,0,0,1-4.22,8.77,16.14,16.14,0,0,1-6.08,4.18,16.64,16.64,0,0,1-4.56,1.07l-1.22,0Z"/><g class="cls-14"><path d="M584.7,5423.32c9.4,7.65,20.66,15.14,33.1,15.39a49.26,49.26,0,0,0,34.05-12.92s-1.69,12.2-13.4,14c-7.49,1.17-20.15,1.13-29,.69-5-.24-8.73-.82-9.65-.92-3.09-.33-8.62-1.34-12-8.85-.52-1.13-1.12-2.06-1.48-2.87C584.35,5423.43,584.7,5423.32,584.7,5423.32Z"/></g><rect class="cls-5" x="595.17" y="5439.49" width="47.48" height="2.6" rx="1.28" ry="1.28"/><path class="cls-6" d="M617.74,5475.92a4.33,4.33,0,0,1-1.11-.15,22.26,22.26,0,0,1-2.92-.85,25,25,0,0,1-14.33-13.43,22.42,22.42,0,0,1-1-2.87,4.48,4.48,0,0,1-.22-1.09c.09,0,.49,1.51,1.59,3.8a26.54,26.54,0,0,0,14.12,13.25C616.2,5475.53,617.76,5475.83,617.74,5475.92Z"/><path class="cls-5" d="M641.55,5457.61s10.36,2.67,7.05,11.44l-18.09,15.08a13.69,13.69,0,0,1-6.91-9.9l17.45-15.66"/><path class="cls-6" d="M621.85,5476c0-.09,1.55-.4,3.91-1.35a26.41,26.41,0,0,0,14.11-13.24c1.1-2.29,1.5-3.83,1.59-3.8a3.56,3.56,0,0,1-.22,1.09,23,23,0,0,1-1,2.87,25.38,25.38,0,0,1-5.79,8.18,25.06,25.06,0,0,1-8.53,5.25,20.2,20.2,0,0,1-2.93.84A4.1,4.1,0,0,1,621.85,5476Z"/><path class="cls-6" d="M620.19,5476.18a180.51,180.51,0,0,1,0-19.37,180.51,180.51,0,0,1,0,19.37Z"/><path class="cls-15" d="M592.94,5548.72l-7.86,7.1s-.9,25.88,9,49.91,16.37,31.07,16.37,31.07l7.42-.48-5.62-86.56-8.15-1.77Z"/><g class="cls-14"><polygon points="600.86 5548.26 613.09 5634.11 617.91 5634.68 612.23 5549.76 604.08 5547.99 600.86 5548.26"/></g><path class="cls-12" d="M613.09,5634.11c-.14,0-3-19.17-6.3-42.87s-5.93-42.93-5.79-42.95,3,19.17,6.31,42.88S613.24,5634.09,613.09,5634.11Z"/><path class="cls-12" d="M607.07,5570.32a.25.25,0,1,1-.5,0,.25.25,0,0,1,.23-.26A.25.25,0,0,1,607.07,5570.32Z"/><path class="cls-12" d="M609.89,5591.41a.26.26,0,0,1-.24.27.25.25,0,0,1-.26-.24.24.24,0,0,1,.23-.26A.25.25,0,0,1,609.89,5591.41Z"/><path class="cls-12" d="M612.81,5615.65a.25.25,0,1,1-.27-.23A.26.26,0,0,1,612.81,5615.65Z"/><path class="cls-12" d="M603.71,5553.06a.25.25,0,0,1-.23.27.25.25,0,1,1,0-.5A.25.25,0,0,1,603.71,5553.06Z"/><path class="cls-15" d="M591,5469h-7.23s-9,45.23,7.23,65.74h12.67s5.43-10.26,5.43-15.68v-35Z"/><g class="cls-14"><path d="M586,5526.12l13.84-5.46v-44.23l9.21,7.67L609,5519a15.38,15.38,0,0,1-.37,3.39,43.33,43.33,0,0,1-5,12.36H591A35.87,35.87,0,0,1,586,5526.12Z"/></g><path class="cls-12" d="M599.88,5476.43a2.12,2.12,0,0,1,0,.6c0,.45,0,1,.05,1.72,0,1.56,0,3.71.09,6.33,0,5.41,0,12.77.07,20.9,0,5.37,0,10.39,0,14.68v.16l-.15.05-10.06,3.87-2.84,1.05a6.18,6.18,0,0,1-1,.33,6.73,6.73,0,0,1,1-.46l2.79-1.17,10-4-.14.21c0-4.29,0-9.31,0-14.68,0-8.13.06-15.49.08-20.9,0-2.62.06-4.77.08-6.33,0-.7,0-1.27.05-1.72A2.75,2.75,0,0,1,599.88,5476.43Z"/><path class="cls-12" d="M602.19,5510.24a.25.25,0,0,1-.25.25.25.25,0,0,1,0-.5A.25.25,0,0,1,602.19,5510.24Z"/><path class="cls-12" d="M594.43,5526.74a.25.25,0,0,1-.25.25.25.25,0,0,1,0-.5A.25.25,0,0,1,594.43,5526.74Z"/><path class="cls-12" d="M602.19,5496.34a.25.25,0,0,1-.25.25.26.26,0,0,1-.25-.25.25.25,0,0,1,.25-.25A.25.25,0,0,1,602.19,5496.34Z"/><path class="cls-12" d="M602.19,5482.43a.25.25,0,0,1-.25.25.25.25,0,0,1,0-.5A.25.25,0,0,1,602.19,5482.43Z"/><rect class="cls-5" x="587.9" y="5534.41" width="19.33" height="13.96" rx="6.84" ry="6.84"/><path class="cls-6" d="M595.94,5548.31s-.21,0-.55-.14a3,3,0,0,1-1.1-1.09,10.47,10.47,0,0,1-1-4.89,14.94,14.94,0,0,1,.76-4.92,5.24,5.24,0,0,1,.88-1.87,25.47,25.47,0,0,0-1.12,6.78,11.87,11.87,0,0,0,.84,4.72A3.77,3.77,0,0,0,595.94,5548.31Z"/><path class="cls-5" d="M622.18,5650.05c0-2.1,0-7.95-.61-10a8.1,8.1,0,0,0-3.59-5,8.9,8.9,0,0,0-4.78-.88,8.78,8.78,0,0,0-4.57,1.35,8.1,8.1,0,0,0-3.06,6.69l-.43,7.78"/><path class="cls-15" d="M621.9,5647.49l-18.18-.17s-13.43,2.76-13.16,3.84,31.79.42,31.79.42Z"/><path class="cls-6" d="M605.67,5641.94a8.55,8.55,0,0,0,2.29.87,26.47,26.47,0,0,0,11.74.56,8.5,8.5,0,0,0,2.36-.65,38.64,38.64,0,0,1-16.39-.78Z"/><path class="cls-15" d="M646.45,5547l8.29,6.57s2.57,25.73-5.72,50.31-14.29,32-14.29,32H627.3v-86.61l8-2.28Z"/><g class="cls-14"><polygon points="638.71 5547.45 632.07 5633.91 627.3 5634.8 627.46 5549.68 635.48 5547.39 638.71 5547.45"/></g><path class="cls-12" d="M632.14,5633.91c-.14,0,1.2-19.36,3-43.23s3.37-43.2,3.51-43.19-1.19,19.36-3,43.23S632.28,5633.92,632.14,5633.91Z"/><path class="cls-12" d="M633.85,5570a.47.47,0,1,0,.46-.47A.47.47,0,0,0,633.85,5570Z"/><path class="cls-12" d="M632,5591.48a.46.46,0,0,0,.46.47.47.47,0,1,0,0-.93A.46.46,0,0,0,632,5591.48Z"/><path class="cls-12" d="M631,5615.81a.47.47,0,1,0,.47-.47A.47.47,0,0,0,631,5615.81Z"/><path class="cls-12" d="M635.72,5552.18a.47.47,0,1,0,.47-.46A.47.47,0,0,0,635.72,5552.18Z"/><path class="cls-15" d="M648.13,5468.44h7.21s9,45.07-7.21,65.5H635.51s-5.41-10.22-5.41-15.63v-34.85Z"/><g class="cls-14"><path d="M653.53,5525.3l-14.07-5.46v-44.23l-9.36,7.67.1,34.89a15.31,15.31,0,0,0,.39,3.44,42.49,42.49,0,0,0,5,12.33H648.5A35.69,35.69,0,0,0,653.53,5525.3Z"/></g><path class="cls-12" d="M639.46,5475.93a2.12,2.12,0,0,1,0,.6c0,.45,0,1,0,1.72,0,1.57.05,3.71.08,6.34,0,5.41.05,12.78.08,20.91,0,5.38,0,10.41,0,14.71l-.15-.21,10,4,2.79,1.17a.54.54,0,1,1-.05.13l-2.83-1.06-10.07-3.86-.14-.06v-.15c0-4.3,0-9.33,0-14.71,0-8.13.06-15.5.08-20.91,0-2.63.06-4.77.08-6.34,0-.7,0-1.27,0-1.72A2.75,2.75,0,0,1,639.46,5475.93Z"/><path class="cls-12" d="M636.65,5510.08a.47.47,0,1,0,.47-.47A.47.47,0,0,0,636.65,5510.08Z"/><path class="cls-12" d="M644.14,5526a.47.47,0,0,0,.47.46.47.47,0,0,0,0-.93A.47.47,0,0,0,644.14,5526Z"/><path class="cls-12" d="M636.65,5496a.47.47,0,0,0,.94,0,.47.47,0,0,0-.94,0Z"/><path class="cls-12" d="M636.65,5482a.47.47,0,1,0,.47-.47A.47.47,0,0,0,636.65,5482Z"/><rect class="cls-5" x="631.98" y="5533" width="19.65" height="14.04" rx="6.88" ry="6.88" transform="translate(1283.6 11080.04) rotate(180)"/><path class="cls-6" d="M643.08,5547.39a3.61,3.61,0,0,0,1.33-1.41,11.68,11.68,0,0,0,.84-4.71,25.27,25.27,0,0,0-1.11-6.79,5.58,5.58,0,0,1,.87,1.87,14.94,14.94,0,0,1,.76,4.92,10.32,10.32,0,0,1-1,4.89,3,3,0,0,1-1.1,1.09C643.3,5547.41,643.09,5547.42,643.08,5547.39Z"/><path class="cls-5" d="M621.28,5649.91c0-2.1,0-7.94.61-10a8.1,8.1,0,0,1,3.59-5,8.81,8.81,0,0,1,4.78-.88,8.72,8.72,0,0,1,4.57,1.35,8.11,8.11,0,0,1,3.06,6.68l.43,7.78"/><path class="cls-15" d="M621.56,5647.34l18.17-.17s13.43,2.76,13.17,3.84-31.79.42-31.79.42Z"/><path class="cls-6" d="M639.67,5641.63a8.37,8.37,0,0,1-2.29.87,26.47,26.47,0,0,1-11.74.56,8.5,8.5,0,0,1-2.36-.65c0-.18,3.68.72,8.24.48S639.62,5641.45,639.67,5641.63Z"/><path class="cls-5" d="M586.68,5375.94s-11.17-.83-12.58,10.37,8.72,11.15,8.72,11.15Z"/><polygon class="cls-15" points="541.68 5417.04 554.37 5425.26 577.47 5401.48 579.38 5373.74 566.69 5379.72 566.69 5379.72 541.68 5417.04"/><g class="cls-14"><polygon points="577.47 5401.48 554.37 5425.26 549.1 5421.85 578.28 5389.63 577.47 5401.48"/></g><path class="cls-12" d="M578.08,5389.73c.1.1-5.52,6.48-12.56,14.25s-12.84,14-12.95,13.9,5.52-6.48,12.56-14.25S578,5389.63,578.08,5389.73Z"/><path class="cls-12" d="M558.57,5415.84a.25.25,0,0,1-.5,0,.25.25,0,0,1,.5,0Z"/><path class="cls-12" d="M565.32,5408.2a.25.25,0,0,1-.25.25.25.25,0,1,1,0-.5A.25.25,0,0,1,565.32,5408.2Z"/><path class="cls-12" d="M572.08,5400.56a.25.25,0,0,1-.25.25.25.25,0,1,1,0-.5A.25.25,0,0,1,572.08,5400.56Z"/><circle class="cls-5" cx="546.07" cy="5426.23" r="10.39"/><polygon class="cls-15" points="556.07 5427.14 583.43 5461.13 578.58 5467.47 537.02 5439.74 537.02 5439.74 535.33 5425.68 556.07 5427.14"/><g class="cls-14"><polygon points="573.97 5464.4 574.79 5456.41 549.6 5426.68 556.07 5427.14 583.43 5461.13 578.58 5467.47 573.97 5464.4"/></g><path class="cls-12" d="M574,5464.4a2,2,0,0,1,0-.56c0-.43.07-1,.11-1.6.13-1.47.31-3.45.52-5.85l0,.15c-2.68-3.15-6.2-7.26-10-11.76-4.19-4.95-8-9.45-10.68-12.73l-3.19-3.89-.85-1.08a1.9,1.9,0,0,1-.27-.4,2.54,2.54,0,0,1,.35.33l.92,1,3.32,3.78c2.78,3.22,6.6,7.68,10.8,12.63l10,11.84.06.07v.08c-.29,2.4-.52,4.37-.69,5.83-.09.64-.16,1.16-.22,1.59A2,2,0,0,1,574,5464.4Z"/><path class="cls-12" d="M567.62,5445.29a.25.25,0,0,1-.25.25.25.25,0,1,1,0-.5A.25.25,0,0,1,567.62,5445.29Z"/><path class="cls-12" d="M574.26,5452.63a.25.25,0,1,1-.25-.25A.25.25,0,0,1,574.26,5452.63Z"/><path class="cls-12" d="M562,5438.35a.25.25,0,0,1-.25.25.25.25,0,1,1,0-.5A.25.25,0,0,1,562,5438.35Z"/><path class="cls-12" d="M556.23,5432.06a.25.25,0,0,1-.25.25.25.25,0,0,1,0-.5A.25.25,0,0,1,556.23,5432.06Z"/><polygon class="cls-15" points="702.01 5364.25 705.96 5378.85 676.26 5393.59 664.05 5390.58 658.83 5376.67 658.83 5376.67 702.01 5364.25"/><g class="cls-14"><polygon points="676.26 5393.59 705.96 5378.85 704.32 5372.79 664.73 5390.74 676.26 5393.59"/></g><path class="cls-12" d="M664.89,5390.58c-.06-.13,7.63-3.75,17.18-8.09s17.35-7.74,17.41-7.6-7.64,3.75-17.19,8.08S665,5390.71,664.89,5390.58Z"/><path class="cls-12" d="M695.7,5380a.26.26,0,0,0,.32-.17.25.25,0,0,0-.48-.15A.26.26,0,0,0,695.7,5380Z"/><path class="cls-12" d="M686.37,5384.07a.25.25,0,1,0,.15-.47.25.25,0,0,0-.32.16A.24.24,0,0,0,686.37,5384.07Z"/><path class="cls-12" d="M677,5388.17a.25.25,0,0,0,.31-.16.25.25,0,0,0-.16-.32.25.25,0,0,0-.15.48Z"/><path class="cls-5" d="M651.29,5377.23s11.17-.83,12.58,10.36-8.72,11.16-8.72,11.16Z"/><circle class="cls-5" cx="709.42" cy="5371.24" r="10.39" transform="translate(-2429.56 955.33) rotate(-27.88)"/><polygon class="cls-15" points="720.76 5360.33 720.02 5316.7 712.24 5314.94 698.07 5362.84 698.07 5362.84 716.16 5364.6 720.76 5360.33"/><g class="cls-14"><polygon points="710.66 5320.25 716.41 5325.86 716.09 5364.82 720.76 5360.33 720.02 5316.7 712.24 5314.94 710.66 5320.25"/></g><path class="cls-12" d="M710.66,5320.25s.17.11.44.35l1.19,1.08,4.26,4,.06.05v.09c0,4.14,0,9.54-.07,15.47,0,6.49-.13,12.36-.21,16.61l-.13,5c0,.54,0,1-.06,1.37a2.48,2.48,0,0,1,0,.47,1.34,1.34,0,0,1-.05-.47c0-.38,0-.83,0-1.37,0-1.28,0-3,0-5,0-4.25,0-10.13.06-16.62.08-5.92.14-11.33.19-15.46l.06.14-4.14-4.17-1.11-1.15A2.47,2.47,0,0,1,710.66,5320.25Z"/><path class="cls-12" d="M718,5339a.25.25,0,1,0,0,.35A.24.24,0,0,0,718,5339Z"/><path class="cls-12" d="M717.9,5329a.25.25,0,1,1-.1.34A.25.25,0,0,1,717.9,5329Z"/><path class="cls-12" d="M718.1,5348a.24.24,0,0,0-.35,0,.25.25,0,0,0,.32.38A.24.24,0,0,0,718.1,5348Z"/><path class="cls-5" d="M583,5456.66l3.15.58,2.71,2.85-1.06,2.12,1.81,5.43s.13,1.71-1.09,2l-1.22.29s.26,1.45-1.62,2.08l-2.67.89s-1,1.41-1.88.62-1.58-.46-1.58-.46-1.39.79-2.08.36-3.89-7.42-3.89-7.42l-1.38-1.13,7.94-8.89,1.34,1.06Z"/><rect class="cls-5" x="568.99" y="5459.09" width="14.34" height="2.73" rx="1.34" ry="1.34" transform="translate(-3692.38 2006.74) rotate(-45)"/><path class="cls-6" d="M581.37,5457.22a68.88,68.88,0,0,1-8.48,8.37,67.06,67.06,0,0,1,8.48-8.37Z"/><path class="cls-5" d="M721.56,5316.42l1.26-7.88,2.38-7.7s.61-2-.65-2-4.25,6-4.25,6,2.24-7,2-8.45-.94-1.43-1.84-.57-3,6-3,6,.76-6.89,0-7.59-1.49-.67-1.86.09-1.17,7-1.28,7.3-1-5.85-1.95-6-1.79-.33-1.66,1.74-.3,8.16-.3,8.16-1.75-4.63-3-5c-1.49-.46-1.66.27-.88,2.85.93,3.09.74,3.81.74,3.81s1.29,4.77,1.82,8.37Z"/><path class="cls-6" d="M710.38,5307.71c0,.05.4-.06,1-.07a4.59,4.59,0,0,1,4.1,2.31c.33.55.43.94.48.93a2.1,2.1,0,0,0-.29-1,4.32,4.32,0,0,0-4.3-2.43A2.09,2.09,0,0,0,710.38,5307.71Z"/><path class="cls-6" d="M717.16,5310.77a18.39,18.39,0,0,0,1.5-1.1,15.54,15.54,0,0,0,1.57-1,3.59,3.59,0,0,0-1.74.75A3.66,3.66,0,0,0,717.16,5310.77Z"/><rect class="cls-5" x="708.05" y="5315.05" width="14.34" height="2.73" rx="1.34" ry="1.34" transform="translate(1430.45 10632.84) rotate(180)"/><path class="cls-6" d="M709.25,5315a32.5,32.5,0,0,1,6-.22,33.52,33.52,0,0,1,6,.3,35.14,35.14,0,0,1-6,.22A35.87,35.87,0,0,1,709.25,5315Z"/><path class="cls-5" d="M948.5,2417.83s55.39,460.38,370.34,473.78c364.56,15.52,382.24-473.78,382.24-473.78Z"/><path class="cls-5" d="M994.06,2597.19s-164.12,42.23-111.73,181.26l286.77,239c60.63-35.75,97.78-87.58,109.51-156.83L1002,2612.37"/><path class="cls-6" d="M948.5,2417.83s377.64,361.7,752.58,0Z"/><path class="cls-12" d="M1388.45,1215.29a4,4,0,1,1-4-4A4,4,0,0,1,1388.45,1215.29Z"/><rect class="cls-5" x="1175.21" y="868.94" width="337.4" height="311.95"/><path class="cls-12" d="M1410.69,1038s172.94-4,197.34-173.21c11.78-81.69,22.35-251.85,30.13-406,8.37-165.77-100-334.8-292.84-334h0c-177.64-12.91-287.85,130.75-295.84,308.68,0,0,13.08,359.34,43,441.73,30.28,83.39,122.74,175.12,277,163.42"/><rect class="cls-5" x="1092.71" y="474.08" width="502.67" height="156.51" rx="4.84" ry="4.84"/><path class="cls-12" d="M1512.61,551.25a24.87,24.87,0,0,1-23.73,25.36,23.78,23.78,0,0,1-25-23.18,24.88,24.88,0,0,1,23.7-25.38A23.82,23.82,0,0,1,1512.61,551.25Z"/><path class="cls-5" d="M1050.53,582.36c0,56.24-10.42,101.84-23.28,101.84S1004,638.6,1004,582.36s10.42-101.84,23.28-101.84S1050.53,526.11,1050.53,582.36Z"/><path class="cls-5" d="M1072.23,582.36c0,56.24-11.41,101.84-25.48,101.84H1028c-10.47-12.65-6.69-55.85-6.69-101.84,0-45.7-5.7-88.56,4.67-101.45,2.39-3,18.17-.39,20.81-.39C1060.82,480.52,1072.23,526.11,1072.23,582.36Z"/><path class="cls-5" d="M1631.75,576.12c0-56.25,10.42-101.84,23.28-101.84s23.28,45.59,23.28,101.84S1667.88,678,1655,678,1631.75,632.36,1631.75,576.12Z"/><path class="cls-5" d="M1610.05,576.12c0-56.25,11.4-101.84,25.47-101.84h18.79c10.48,12.64,6.69,55.85,6.69,101.84,0,45.7,5.71,88.55-4.66,101.45-2.4,3-18.18.39-20.82.39C1621.45,678,1610.05,632.36,1610.05,576.12Z"/><g class="cls-14"><path d="M1625.89,670.38c-.6,8.62-8.41,116.22-15.84,179.48-6.58,55.95-23.67,101.76-67.09,137.65-38,31.44-75.28,47.77-124.43,52.15-55.81,5-112.32,6.55-165.39-11.43s-108.4-53.92-135.21-103.12c0,0,238.19,126.63,398,19.51,0,0,58.6-27.72,79.49-149.65C1615.26,679,1625.89,670.38,1625.89,670.38Z"/></g><path class="cls-12" d="M1515.06,652.62c0-.43,4.51-.46,12.86-1.81a91.84,91.84,0,0,0,34.34-12.7,92.89,92.89,0,0,0,45-77.78c.4-12.89-1.15-26.32-6.34-39.46-9.78-26.24-34.75-50-67.22-56.68-16-3-33.91-1.35-52-1.71l-56,.18-249.5.32a91,91,0,0,0-89,71.87c-3.72,19.54-2.44,40.28,4.94,58,7.57,17.67,20.35,32.7,36.08,42.29,15.61,9.93,33.67,14.22,51.36,13.88l52.86.21,94.87.5L1464.68,651l37.36.78c8.53.27,13,.55,13,.83s-4.49.56-13,.83l-37.36.78-137.38,1.31-94.87.5-52.86.21c-18.52.51-38.51-4-55.36-14.67-17.1-10.31-31-26.52-39.35-45.72-8.12-19.5-9.59-41.33-5.58-62.69a99,99,0,0,1,96.87-78.44l249.5.32,56,.18c18.11.52,35.74-1.17,53.42,2.26,34.87,7.46,61.23,33.25,71.28,61.29,10.19,28.23,7.21,56.89-2.45,78.31a95.85,95.85,0,0,1-40,43.78,87.93,87.93,0,0,1-35.74,11.59C1519.57,653.29,1515.06,652.62,1515.06,652.62Z"/><path class="cls-12" d="M1345.32,124.82c1.14,0,2.41,18.61,3.55,48.82s2.13,72,2.73,118.11.67,87.94.31,118.17-1.15,48.94-2.29,48.94-2.41-18.7-3.55-48.91-2.13-71.93-2.73-118-.66-87.83-.31-118.07S1344.18,124.87,1345.32,124.82Z"/><path class="cls-12" d="M1352.87,1043c-2.28,0-4.13-86.05-4.13-192.17s1.85-192.19,4.13-192.19,4.12,86,4.12,192.19S1355.15,1043,1352.87,1043Z"/><path class="cls-12" d="M1375.5,243.26a4,4,0,1,1-4-4A4,4,0,0,1,1375.5,243.26Z"/><path class="cls-12" d="M1392.42,833a4,4,0,1,1-4-4A4,4,0,0,1,1392.42,833Z"/><path class="cls-12" d="M1379.46,320.57a4,4,0,1,1-4-4A4,4,0,0,1,1379.46,320.57Z"/><path class="cls-12" d="M1392.42,708.91a4,4,0,1,1-4-4A4,4,0,0,1,1392.42,708.91Z"/><path class="cls-6" d="M1656,676.64c-.87.42-6.89-9.28-13.12-26.59s-12-42.36-12.41-70.53,4.65-53.47,10.41-70.88,11.48-27.34,12.36-26.94c2.56.8-15.66,42.77-14.51,97.7C1639.12,634.32,1658.52,675.76,1656,676.64Z"/><path class="cls-6" d="M1022.29,692.55c-1.21-.76,5.74-11.58,12.11-30.89,6.57-19.24,11.17-47.11,11.78-78.33.4-15.61.08-30.54-.26-44.16-.51-13.65,0-26-2.74-35.21-2.51-9.32-8.51-15.06-13.2-17.53s-8.12-2.29-8.13-3c-.13-.39,3.34-1.9,9.39.05,5.85,1.83,13.77,8,17.48,18.66,3.87,10.55,3.84,23.2,4.8,36.72.76,13.67,1.32,28.77.91,44.68-.6,31.81-6.31,60.75-14.55,80.15C1031.81,683.21,1023,693.08,1022.29,692.55Z"/><path class="cls-12" d="M1235.14,569.43c-1.29-.22-.21-6.34-3.57-14.66-3-8.26-12.23-18-25.68-18-13.45-.44-22.91,9.09-26.19,17.26-3.59,8.22-2.69,14.36-4,14.55-.86.38-4.22-5.94-1.54-16.46a32.41,32.41,0,0,1,9.94-15.87,32.53,32.53,0,0,1,53,16.75C1239.52,563.61,1236,569.83,1235.14,569.43Z"/><path class="cls-6" d="M1511.88,1126.26c0,2.28-74.93,4.13-167.34,4.13s-167.35-1.85-167.35-4.13,74.91-4.13,167.35-4.13S1511.88,1124,1511.88,1126.26Z"/><path class="cls-6" d="M1511.88,1085.69c0,2.28-74.93,4.13-167.34,4.13s-167.35-1.85-167.35-4.13,74.91-4.12,167.35-4.12S1511.88,1083.41,1511.88,1085.69Z"/><path class="cls-12" d="M1318.84,1164.69s-481.5,20.39-557.62,207-42.11,877,220.79,933c165.93,35.33,442.71,26.06,624.31,14.42a255.26,255.26,0,0,0,231.26-191.22c55.49-215.88,123.26-577.7,23.13-784.21C1751.75,1227.11,1569.44,1168.78,1318.84,1164.69Z"/><rect class="cls-5" x="895.97" y="1425.6" width="857.65" height="449.62" rx="220.41" ry="220.41"/><path class="cls-12" d="M1396.38,2026.8a4,4,0,1,1-4-4A4,4,0,0,1,1396.38,2026.8Z"/><path class="cls-12" d="M1477.76,1963.09a4,4,0,1,1-4-4A4,4,0,0,1,1477.76,1963.09Z"/><path class="cls-12" d="M1639.31,1955.16a4,4,0,1,1-4-4A4,4,0,0,1,1639.31,1955.16Z"/><path class="cls-12" d="M1757.59,1890.94a4,4,0,1,1-4-4A4,4,0,0,1,1757.59,1890.94Z"/><path class="cls-12" d="M1831.22,1787.37a4,4,0,1,1-4-4A4,4,0,0,1,1831.22,1787.37Z"/><path class="cls-12" d="M1857.93,1676.53a4,4,0,1,1-4-4A4,4,0,0,1,1857.93,1676.53Z"/><path class="cls-12" d="M1845.91,1569.29a4,4,0,1,1-4-4A4,4,0,0,1,1845.91,1569.29Z"/><path class="cls-12" d="M1796.5,1462.91a4,4,0,1,1-4-4A4,4,0,0,1,1796.5,1462.91Z"/><path class="cls-12" d="M1725.72,1395.84a4,4,0,1,1-4-4A4,4,0,0,1,1725.72,1395.84Z"/><path class="cls-12" d="M1624.23,1353.37a4,4,0,1,1-4-4A4,4,0,0,1,1624.23,1353.37Z"/><path class="cls-12" d="M1496,1349.41a4,4,0,1,1-4-4A4,4,0,0,1,1496,1349.41Z"/><path class="cls-12" d="M1374.52,1353.37a4,4,0,1,1-4-4A4,4,0,0,1,1374.52,1353.37Z"/><path class="cls-12" d="M1232.56,1345.44a4,4,0,1,1-4-4A4,4,0,0,1,1232.56,1345.44Z"/><path class="cls-12" d="M1098.49,1345.44a4,4,0,1,1-4-4A4,4,0,0,1,1098.49,1345.44Z"/><path class="cls-12" d="M963,1379.6a4,4,0,1,1-4-4A4,4,0,0,1,963,1379.6Z"/><path class="cls-12" d="M843.86,1466.88a4,4,0,1,1-4-4A4,4,0,0,1,843.86,1466.88Z"/><path class="cls-12" d="M790.16,1603.79a4,4,0,1,1-4-4A4,4,0,0,1,790.16,1603.79Z"/><path class="cls-12" d="M802.39,1742.74a4,4,0,1,1-4-4A4,4,0,0,1,802.39,1742.74Z"/><path class="cls-12" d="M867.13,1854.37a4,4,0,1,1-4-4A4,4,0,0,1,867.13,1854.37Z"/><path class="cls-12" d="M981.77,1951.2a4,4,0,1,1-4-4A4,4,0,0,1,981.77,1951.2Z"/><path class="cls-12" d="M1138.59,1955.16a4,4,0,1,1-4-4A4,4,0,0,1,1138.59,1955.16Z"/><path class="cls-12" d="M1289,1959.13a4,4,0,1,1-4-4A4,4,0,0,1,1289,1959.13Z"/><path class="cls-12" d="M1392.42,2169.05a4,4,0,1,1-4-4A4,4,0,0,1,1392.42,2169.05Z"/><path class="cls-12" d="M1328.46,1584.09v148H1294.2v-60.67H1227v60.67h-34.25v-148H1227v58.35h67.2v-58.35Z"/><path class="cls-12" d="M1357.28,1584.09c0-10.36,8.24-18.39,20.49-18.39s20.51,7.61,20.51,17.76c0,11-8.23,19-20.51,19S1357.28,1594.45,1357.28,1584.09Zm4,34.25h33v113.72h-33Z"/><path class="cls-12" d="M1420.08,1714.51c0-10.78,8.45-18.81,20.29-18.81s20.29,8,20.29,18.81c0,10.57-8.45,19.23-20.29,19.23S1420.08,1725.08,1420.08,1714.51Zm.63-130.42H1460l-6.55,96.6h-26.22Z"/><path class="cls-12" d="M1337.74,1383.57c-2.28,0-4.13-48.26-4.13-107.77s1.85-107.78,4.13-107.78,4.13,48.25,4.13,107.78S1340,1383.57,1337.74,1383.57Z"/><path class="cls-12" d="M1342.59,2312.05c-2.28,0-4.13-88.41-4.13-197.43s1.85-197.45,4.13-197.45,4.12,88.38,4.12,197.45S1344.86,2312.05,1342.59,2312.05Z"/><path class="cls-12" d="M1544.19,1917.17c-.49-2.14,36.91,3.29,96.83-20.45a256.26,256.26,0,0,0,94.24-66.34c15.5-16.49,29.23-36.74,40.6-59.67a243.15,243.15,0,0,0,23.85-77.13c7.9-56,1.3-121.54-33.27-179.16-33.57-57.41-94-105.25-167.66-121-36.52-8.7-75.7-5-115.51-5.78l-121.76.1-256,.09a257.25,257.25,0,0,0-213.82,113.83A263,263,0,0,0,850,1612.93c-4.43,38.83-2.35,78.23,7.87,114.12,20.08,72.69,72.66,129.5,132,159.17a259.89,259.89,0,0,0,92.22,26.59l23,1.22,22.81.08,44.13.14,272.29,1.31,74,.77,19.25.42c4.34.13,6.56.27,6.56.42s-2.22.28-6.56.42l-19.25.41-74,.77-272.29,1.32-44.13.13-22.82,0-23.54-1.12a266,266,0,0,1-94.72-26.81C925.79,1862.15,871.5,1804,850.6,1729.16,840,1691.94,837.74,1652,842.22,1612a270.53,270.53,0,0,1,42.71-114.84,265.16,265.16,0,0,1,220.53-117.58l256,.09,121.76.1,59,.06,29.38,1.46c9.62,1.6,19.29,2.69,28.7,4.71,75.77,16.46,137.76,65.92,172,125,35.24,59.37,41.57,126.54,33.15,183.49a248.15,248.15,0,0,1-24.93,78.62c-11.79,23.3-26,43.81-41.89,60.44a257.18,257.18,0,0,1-96.45,66.21c-30.08,12.29-55.44,14.85-72.17,17l-19.3.57C1546.41,1917.34,1544.19,1917.31,1544.19,1917.17Z"/><g class="cls-14"><path d="M782.62,2054.17C931.64,2175.3,1110,2294,1307.2,2298.06s394.84-71,539.69-204.78c0,0-26.71,193.28-212.36,222.29-118.67,18.53-319.42,18-459.32,11.07-79-3.91-138.39-13-153-14.59-48.95-5.25-136.61-21.38-190.82-140.31-8.18-17.94-17.69-32.7-23.36-45.58C777,2055.88,782.62,2054.17,782.62,2054.17Z"/></g><rect class="cls-5" x="948.5" y="2310.44" width="752.58" height="41.27" rx="1.28" ry="1.28"/><path class="cls-6" d="M1306.25,2887.81c-.11.51-6.38-.17-17.55-2.45a339,339,0,0,1-46.38-13.4c-38.34-13.64-89.55-40.28-135.28-83.2s-75.64-92.32-91.7-129.71A337.44,337.44,0,0,1,999,2613.62c-3-11-4.07-17.21-3.57-17.34,1.43-.44,7.8,24,25.2,60.33a420.07,420.07,0,0,0,223.78,209.9C1281.82,2881.56,1306.59,2886.35,1306.25,2887.81Z"/><path class="cls-5" d="M1683.68,2597.64s164.12,42.24,111.72,181.26l-286.77,239c-60.62-35.75-97.77-87.58-109.5-156.84l276.65-248.21"/><path class="cls-6" d="M1371.49,2888.27c-.35-1.46,24.43-6.26,61.83-21.3a420,420,0,0,0,223.77-209.9c17.41-36.37,23.78-60.78,25.21-60.34.5.14-.58,6.35-3.57,17.35a338.24,338.24,0,0,1-16.34,45.43c-16.06,37.39-45.91,86.8-91.7,129.7s-96.93,69.57-135.28,83.2a338.21,338.21,0,0,1-46.38,13.4C1377.86,2888.09,1371.59,2888.77,1371.49,2888.27Z"/><path class="cls-6" d="M1345.05,2892c-2.29,0-4.13-68.75-4.13-153.55s1.84-153.56,4.13-153.56,4.12,68.74,4.12,153.56S1347.32,2892,1345.05,2892Z"/><path class="cls-12" d="M913.21,4041.63,788.67,4154.3s-14.28,410.15,142.33,791,259.33,492.41,259.33,492.41l117.73-7.64-89.13-1372-129.13-28Z"/><g class="cls-14"><polygon points="1038.77 4034.45 1232.63 5395.16 1309.01 5404.22 1218.93 4058.14 1089.8 4030.16 1038.77 4034.45"/></g><path class="cls-12" d="M1232.63,5395.17c-2.26.32-47-303.95-99.9-679.52s-94-680.43-91.73-680.74,47,303.88,99.9,679.59S1234.88,5394.86,1232.63,5395.17Z"/><path class="cls-12" d="M1137.13,4384.09a4,4,0,1,1-4.21-3.7A3.95,3.95,0,0,1,1137.13,4384.09Z"/><path class="cls-12" d="M1181.77,4718.33a4,4,0,1,1-4.21-3.7A4,4,0,0,1,1181.77,4718.33Z"/><path class="cls-12" d="M1228.13,5102.61a4,4,0,1,1-4.22-3.7A4,4,0,0,1,1228.13,5102.61Z"/><path class="cls-12" d="M1083.92,4110.54a4,4,0,1,1-4.21-3.7A4,4,0,0,1,1083.92,4110.54Z"/><path class="cls-12" d="M882.33,2778.45H767.62S624.24,3495.38,882.33,3820.38h200.74s86-162.5,86-248.53V3017.42Z"/><g class="cls-14"><path d="M803.79,3683.45,1023.21,3597V2895.84l145.89,121.58-1.51,553.43a247.65,247.65,0,0,1-5.91,53.73c-9.1,40.52-30.87,115.77-78.61,195.8H882.33C851.57,3782.2,825.78,3735.91,803.79,3683.45Z"/></g><path class="cls-12" d="M1023.21,2895.84c.28,0,.56,3.28.83,9.52.2,7.14.46,16.18.77,27.3.33,24.8.77,58.83,1.32,100.4.31,85.76.73,202.39,1.2,331.25-.2,85-.39,164.7-.55,232.66v2.46l-2.26.87-159.59,61.31-45,16.65c-10.42,3.73-16,5.55-16.18,5.19s5.21-2.86,15.37-7.24l44.23-18.5,158.5-64.07-2.26,3.33c-.16-68-.35-147.66-.55-232.66.47-128.86.9-245.49,1.21-331.25.54-41.57,1-75.6,1.31-100.4.32-11.12.57-20.16.78-27.3C1022.64,2899.12,1022.92,2895.84,1023.21,2895.84Z"/><path class="cls-12" d="M1059.87,3431.83a4,4,0,1,1-4-4A4,4,0,0,1,1059.87,3431.83Z"/><path class="cls-12" d="M948.9,3684.94a8.58,8.58,0,1,1-8.58-8.57A8.58,8.58,0,0,1,948.9,3684.94Z"/><path class="cls-12" d="M1059.87,3211.41a4,4,0,1,1-4-4A4,4,0,0,1,1059.87,3211.41Z"/><path class="cls-12" d="M1059.87,2991a4,4,0,1,1-4-4A4,4,0,0,1,1059.87,2991Z"/><rect class="cls-5" x="833.24" y="3814.87" width="306.41" height="221.31" rx="6.84" ry="6.84"/><path class="cls-6" d="M960.8,4035.2c-.11.42-3.41.29-8.7-2.29s-12.09-8.27-17.49-17.27c-11.08-18.12-15.75-46.63-16.48-77.45a236.84,236.84,0,0,1,12.07-78.05c6.44-19.24,13-30,13.87-29.6,2.52.75-18.72,46.85-17.69,107.56.69,30,4.44,57.65,13.32,74.68C948.37,4030.41,961.5,4034,960.8,4035.2Z"/><path class="cls-5" d="M1376.64,5647.72c-.46-33.28-.58-125.89-9.66-157.91s-27.89-62.66-57-78.81c-22.72-12.61-49.7-15.4-75.64-14-25.51,1.37-51.57,6.87-72.55,21.45-33.15,23-48.33,65.56-48.45,105.93l-6.85,123.33"/><path class="cls-12" d="M1372.17,5607.2l-288.06-2.67s-212.85,43.75-208.65,60.89,503.86,6.6,503.86,6.6Z"/><path class="cls-6" d="M1115,5519.24c-.35,1,13.18,7.17,36.26,13.81s55.82,13.15,92.51,14.94,70-1.63,93.52-6.07,37.67-9.29,37.41-10.3c-.51-2.78-58.24,11.46-130.52,7.69C1171.92,5536.19,1115.79,5516.52,1115,5519.24Z"/><path class="cls-12" d="M1761.27,4015l131.38,104.2s40.77,407.73-90.6,797.33S1575.53,5424,1575.53,5424H1457.74V4051.28L1584.59,4015Z"/><g class="cls-14"><polygon points="1638.61 4021.61 1533.38 5392.03 1457.74 5406.02 1460.37 4056.93 1587.42 4020.63 1638.61 4021.61"/></g><path class="cls-12" d="M1534.5,5392c-2.27-.18,19-307,47.4-685.2s53.37-684.81,55.65-684.64-19,306.92-47.42,685.26S1536.77,5392.19,1534.5,5392Z"/><path class="cls-12" d="M1561.56,4378.39A7.42,7.42,0,1,0,1569,4371,7.42,7.42,0,0,0,1561.56,4378.39Z"/><path class="cls-12" d="M1531.9,4719.5a7.42,7.42,0,1,0,7.41-7.41A7.42,7.42,0,0,0,1531.9,4719.5Z"/><path class="cls-12" d="M1517.07,5105.1a7.42,7.42,0,1,0,7.41-7.41A7.42,7.42,0,0,0,1517.07,5105.1Z"/><path class="cls-12" d="M1591.22,4096.61a7.42,7.42,0,1,0,7.42-7.42A7.42,7.42,0,0,0,1591.22,4096.61Z"/><path class="cls-12" d="M1788,2769.25h114.29S2045.12,3483.58,1788,3807.41H1588s-85.71-161.91-85.71-247.64V3007.36Z"/><g class="cls-14"><path d="M1873.59,3670.48l-223-86.49V2882.87l-148.3,121.58,1.53,553a246.92,246.92,0,0,0,6.1,54.59c9.32,40.61,31.45,115.62,79.82,195.38h204.06C1825,3769.22,1851.23,3722.94,1873.59,3670.48Z"/></g><path class="cls-12" d="M1606.05,3429.22a7.42,7.42,0,1,0,7.42-7.41A7.42,7.42,0,0,0,1606.05,3429.22Z"/><path class="cls-12" d="M1724.7,3681.35a7.42,7.42,0,1,0,7.41-7.42A7.41,7.41,0,0,0,1724.7,3681.35Z"/><path class="cls-12" d="M1606.05,3206.76a7.42,7.42,0,1,0,7.42-7.41A7.42,7.42,0,0,0,1606.05,3206.76Z"/><path class="cls-12" d="M1606.05,2984.3a7.42,7.42,0,1,0,7.42-7.42A7.41,7.41,0,0,0,1606.05,2984.3Z"/><rect class="cls-5" x="1531.9" y="3792.58" width="311.45" height="222.46" rx="6.88" ry="6.88" transform="translate(3375.24 7807.62) rotate(180)"/><path class="cls-6" d="M1707.92,4020.63c-.7-1.24,12.43-4.79,21.11-22.42,8.87-17,12.62-44.73,13.31-74.67,1-60.71-20.21-106.81-17.68-107.56.85-.41,7.42,10.36,13.87,29.59a237.13,237.13,0,0,1,12.07,78.06c-.73,30.82-5.4,59.32-16.49,77.44-5.39,9-12.24,14.7-17.48,17.27S1708,4021.06,1707.92,4020.63Z"/><path class="cls-5" d="M1362.36,5645.62c.46-33.27.58-125.89,9.66-157.91s27.89-62.66,57-78.81c22.72-12.61,49.7-15.39,75.64-14,25.51,1.37,51.57,6.87,72.55,21.45,33.15,23,48.33,65.56,48.45,105.93l6.85,123.33"/><path class="cls-12" d="M1366.83,5604.82l288.06-2.68s212.85,43.76,208.65,60.9-503.86,6.6-503.86,6.6Z"/><path class="cls-6" d="M1653.84,5514.26c.35,1-13.19,7.17-36.27,13.81s-55.81,13.15-92.5,14.94-70-1.63-93.52-6.07-37.67-9.29-37.42-10.3c.52-2.78,58.25,11.46,130.53,7.69C1596.93,5531.21,1653.06,5511.55,1653.84,5514.26Z"/><path class="cls-5" d="M814,1303.18S636.88,1290,614.61,1467.47,752.75,1644.3,752.75,1644.3Z"/><polygon class="cls-12" points="100.65 1954.61 301.81 2084.77 667.99 1707.89 698.22 1268.3 497.06 1362.96 497.06 1362.96 100.65 1954.61"/><g class="cls-14"><polygon points="667.99 1707.89 301.81 2084.77 218.34 2030.76 680.9 1520.12 667.99 1707.89"/></g><path class="cls-12" d="M677.59,1521.68c1.69,1.54-87.43,102.66-199,225.85s-203.49,221.85-205.17,220.32S360.79,1865.21,472.44,1742,675.91,1520.16,677.59,1521.68Z"/><path class="cls-12" d="M368.46,1935.49a4,4,0,1,1-4-4A4,4,0,0,1,368.46,1935.49Z"/><path class="cls-12" d="M475.49,1814.4a4,4,0,1,1-4-4A4,4,0,0,1,475.49,1814.4Z"/><path class="cls-12" d="M582.51,1693.32a4,4,0,1,1-4-4A4,4,0,0,1,582.51,1693.32Z"/><circle class="cls-5" cx="170.24" cy="2100.21" r="164.72"/><polygon class="cls-12" points="328.76 2114.61 762.44 2653.37 685.53 2753.95 26.94 2314.32 26.94 2314.32 0 2091.51 328.76 2114.61"/><g class="cls-14"><polygon points="612.49 2705.19 625.55 2578.59 226.24 2107.41 328.76 2114.61 762.44 2653.37 685.53 2753.95 612.49 2705.19"/></g><path class="cls-12" d="M612.49,2705.19c-.31,0-.29-3.1,0-8.9.48-6.82,1.07-15.18,1.78-25.33,2.06-23.25,4.83-54.62,8.19-92.69l.72,2.32c-42.6-49.85-98.29-115-159.29-186.36-66.51-78.48-126.36-149.82-169.37-201.72l-50.6-61.74-13.44-17.05c-3-4-4.47-6.13-4.25-6.31s2.11,1.62,5.52,5.23l14.62,16.05,52.61,60c44.14,50.93,104.7,121.67,171.21,200.15l157.72,187.7.87,1-.16,1.29c-4.48,38-8.17,69.22-10.91,92.41-1.37,10.08-2.51,18.38-3.43,25.15C613.41,2702.21,612.79,2705.22,612.49,2705.19Z"/><path class="cls-12" d="M511.93,2402.32a4,4,0,1,1-4-4A4,4,0,0,1,511.93,2402.32Z"/><path class="cls-12" d="M617.07,2518.68a4,4,0,1,1-4-4A4,4,0,0,1,617.07,2518.68Z"/><path class="cls-12" d="M421.93,2292.29a4,4,0,1,1-4-4A4,4,0,0,1,421.93,2292.29Z"/><path class="cls-12" d="M331.27,2192.62a4,4,0,1,1-4-4A4,4,0,0,1,331.27,2192.62Z"/><polygon class="cls-12" points="2641.95 1117.9 2704.48 1349.2 2233.8 1582.82 2040.22 1535.12 1957.53 1314.74 1957.53 1314.74 2641.95 1117.9"/><g class="cls-14"><polygon points="2233.8 1582.82 2704.48 1349.2 2678.53 1253.22 2051.04 1537.79 2233.8 1582.82"/></g><path class="cls-12" d="M2053.55,1535.12c-.94-2.08,121-59.44,272.42-128.1s274.91-122.68,275.85-120.6-121,59.42-272.44,128.11S2054.49,1537.19,2053.55,1535.12Z"/><path class="cls-12" d="M2542,1367.09a4,4,0,1,0-2.57-5A4,4,0,0,0,2542,1367.09Z"/><path class="cls-12" d="M2394,1432a4,4,0,1,0-2.57-5A4,4,0,0,0,2394,1432Z"/><path class="cls-12" d="M2246,1497a4,4,0,1,0-2.57-5A4,4,0,0,0,2246,1497Z"/><path class="cls-5" d="M1838,1323.56s177.14-13.18,199.42,164.28-138.15,176.83-138.15,176.83Z"/><circle class="cls-5" cx="2759.35" cy="1228.62" r="164.72" transform="translate(-60.57 2311.01) rotate(-45)"/><polygon class="cls-12" points="2939.21 1055.76 2927.49 364.23 2804.01 336.2 2579.49 1095.54 2579.49 1095.54 2866.26 1123.47 2939.21 1055.76"/><g class="cls-14"><polygon points="2779.11 420.41 2870.2 509.31 2865.05 1126.92 2939.21 1055.76 2927.49 364.23 2804.01 336.2 2779.11 420.41"/></g><path class="cls-12" d="M2779.11,420.41c.22-.22,2.61,1.7,7,5.55l18.73,17.12,67.55,64,.94.89v1.36c-.27,65.57-.62,151.27-1,245.16-.85,102.86-2.09,196-3.4,263.37-.81,32.7-1.48,59.64-2,79.8-.38,8.61-.69,15.77-1,21.69-.31,5-.61,7.56-.9,7.56s-.54-2.61-.77-7.57c-.16-5.93-.35-13.09-.59-21.71-.16-20.16-.38-47.11-.65-79.82-.18-67.41.13-160.52,1-263.39,1.17-93.88,2.25-179.58,3.07-245.14l.93,2.24-65.63-66-17.57-18.32C2780.87,423,2778.9,420.64,2779.11,420.41Z"/><path class="cls-12" d="M2895.75,717.47a4,4,0,1,0-.51,5.58A4,4,0,0,0,2895.75,717.47Z"/><path class="cls-12" d="M2893.83,559.44a4,4,0,1,1-1.61,5.37A4,4,0,0,1,2893.83,559.44Z"/><path class="cls-12" d="M2897,859.61a4,4,0,1,0-.51,5.59A4,4,0,0,0,2897,859.61Z"/><path class="cls-5" d="M755.88,2582.48l50.07,9.27,42.86,45.17L832.1,2670.5l28.58,86.07s2.07,27.17-17.26,31.85l-19.34,4.68s4.16,23-25.63,32.88L756.11,2840s-15.17,22.45-29.79,9.89-25.07-7.34-25.07-7.34-22,12.51-32.92,5.71-61.67-117.58-61.67-117.58l-21.92-17.89,125.92-140.92,21.18,16.81Z"/><rect class="cls-5" x="533.59" y="2621.13" width="227.31" height="43.34" rx="1.34" ry="1.34" transform="translate(-1679.17 1231.73) rotate(-45)"/><path class="cls-6" d="M729.83,2591.4c1.67,1.56-27.12,32.57-64.3,69.26s-68.61,65.12-70.19,63.47,27.21-32.65,64.31-69.27S728.17,2589.85,729.83,2591.4Z"/><path class="cls-5" d="M2951.89,359.7l19.87-124.94,37.78-122s9.59-31-10.31-31.13-67.31,94.91-67.31,94.91,35.49-111.26,31.49-133.94c-4.1-23.28-15-22.6-29.13-9s-47.5,94.85-47.5,94.85,12-109.23-.48-120.38-23.63-10.69-29.4,1.5-18.57,110.13-20.26,115.6-15.76-92.75-30.89-95.44-28.42-5.11-26.39,27.59c2,32.85-4.69,129.3-4.69,129.3s-27.73-73.32-47-79.28c-23.53-7.29-26.37,4.15-14,45.17,14.78,48.95,11.77,60.28,11.77,60.28s20.55,75.67,28.88,132.77Z"/><path class="cls-6" d="M2774.6,221.7c.21.76,6.41-1,16.54-1.18a72.55,72.55,0,0,1,65,36.65c5.11,8.74,6.8,15,7.56,14.76.52-.09,0-6.74-4.57-16.35a68.55,68.55,0,0,0-68.2-38.43C2780.36,218.21,2774.4,221.21,2774.6,221.7Z"/><path class="cls-6" d="M2882.12,270.13c1,.93,10.44-8.33,23.76-17.36s25.28-14.52,24.79-15.83-13.66,2.37-27.49,11.89S2881.15,269.35,2882.12,270.13Z"/><rect class="cls-5" x="2737.72" y="338.03" width="227.32" height="43.34" rx="1.34" ry="1.34" transform="translate(5702.75 719.4) rotate(180)"/><path class="cls-6" d="M2756.64,337.64c-.08-2.28,42.21-3.84,94.44-3.5s94.56,2.47,94.51,4.75-42.33,3.85-94.45,3.5S2756.71,339.92,2756.64,337.64Z"/></g><g id="Floor"><path class="cls-5" d="M1371.58,5779.58c0,.14-95.84.26-214,.26s-214-.12-214-.26,95.82-.26,214-.26S1371.58,5779.43,1371.58,5779.58Z"/></g></g></svg>